<svg width="28" height="22" viewBox="0 0 28 22" fill="none" xmlns="http://www.w3.org/2000/svg">
<path opacity="0.5" d="M16.4594 15.592L16.1226 15.9253L16.4594 15.592C16.2202 15.3503 15.8947 15.2136 15.5541 15.2136H12.4432C12.1027 15.2136 11.7771 15.3503 11.5379 15.592L11.8933 15.9437L11.5379 15.592C11.2989 15.8335 11.1655 16.16 11.1655 16.4994V21.2C11.1655 21.2772 11.1352 21.3502 11.0829 21.4034C11.0307 21.4563 10.9611 21.4853 10.8894 21.4858C10.8893 21.4858 10.8892 21.4858 10.8892 21.4858L5.44475 21.5C5.44461 21.5 5.44446 21.5 5.44431 21.5C5.37249 21.4999 5.30258 21.4711 5.2502 21.4181C5.19754 21.3649 5.16704 21.2917 5.16704 21.2142V13.3995L13.9457 6.09413C13.962 6.08128 13.9813 6.07481 14.0006 6.07481C14.0199 6.07481 14.0393 6.0813 14.0556 6.09416C14.056 6.09446 14.0563 6.09476 14.0567 6.09507L22.8323 13.3942V21.2142C22.8323 21.2917 22.8018 21.3649 22.7491 21.4181C22.6967 21.471 22.6269 21.4999 22.5551 21.5C22.5549 21.5 22.5547 21.5 22.5545 21.5L17.1109 21.4848H17.1096C17.0737 21.4848 17.0381 21.4776 17.0048 21.4636C16.9714 21.4496 16.9407 21.429 16.9147 21.4026C16.8886 21.3762 16.8677 21.3446 16.8534 21.3094L16.3903 21.498L16.8534 21.3094C16.8391 21.2742 16.8317 21.2364 16.8318 21.1981V21.1965V16.4994C16.8318 16.16 16.6985 15.8335 16.4594 15.592ZM27.4647 11.1605L27.4673 11.1626C27.4759 11.1697 27.4834 11.1787 27.489 11.1893C27.4947 11.1999 27.4983 11.2117 27.4995 11.2241L27.9971 11.1747L27.4995 11.2241C27.5008 11.2365 27.4995 11.249 27.496 11.2608C27.4925 11.2726 27.4868 11.2832 27.4795 11.2922L26.2408 12.8137C26.2408 12.8138 26.2407 12.8139 26.2406 12.814C26.2333 12.8228 26.2247 12.8298 26.2154 12.8348C26.2059 12.8398 26.1958 12.8428 26.1856 12.8438C26.1754 12.8448 26.1651 12.8437 26.1552 12.8406C26.1452 12.8375 26.1356 12.8324 26.1271 12.8253L26.1262 12.8245L14.6923 3.30943L14.6923 3.30941L14.6882 3.30607C14.4941 3.14797 14.2515 3.06119 14.0006 3.06119C13.7498 3.06119 13.5072 3.14797 13.313 3.30607L13.313 3.30605L13.3089 3.30944L1.87551 12.8245L1.87499 12.825C1.86644 12.8321 1.85686 12.8372 1.8469 12.8403C1.83695 12.8434 1.82661 12.8444 1.81641 12.8434C1.80621 12.8424 1.7961 12.8394 1.78666 12.8343C1.7772 12.8292 1.76848 12.8221 1.76119 12.8132L1.76115 12.8131L0.521664 11.2906L0.520736 11.2895C0.513408 11.2805 0.507675 11.2699 0.504106 11.2582C0.500533 11.2465 0.499256 11.234 0.500416 11.2217C0.501576 11.2093 0.505126 11.1974 0.510687 11.1868C0.516193 11.1763 0.523498 11.1674 0.531955 11.1603C0.532031 11.1602 0.532107 11.1601 0.532183 11.1601L12.8353 0.922249C12.8354 0.922207 12.8354 0.922164 12.8355 0.922121C13.1637 0.649281 13.5747 0.500694 13.9982 0.500694C14.4217 0.500694 14.8328 0.649328 15.1611 0.922249L15.1611 0.922279L19.5129 4.53992L20.3325 5.22127V4.15542V0.589351C20.3325 0.563994 20.3426 0.540706 20.3588 0.524339L20.0034 0.172617L20.3588 0.524336C20.3748 0.508145 20.3954 0.5 20.4158 0.5H23.1378C23.1582 0.5 23.1789 0.508143 23.1949 0.524339C23.2111 0.540706 23.2211 0.563994 23.2211 0.589351V7.39194V7.62621L23.4011 7.77614L27.4647 11.1605Z" stroke="black"/>
</svg>
