<svg width="248" height="258" viewBox="0 0 248 258" fill="none" xmlns="http://www.w3.org/2000/svg">
<path d="M56.9887 2.32349H7.51685V53.6539H56.9887V2.32349Z" fill="#E0E0E0"/>
<path d="M53.609 2.32349H4.13721V53.6539H53.609V2.32349Z" fill="#EBEBEB"/>
<path d="M47.0245 9.22559H10.8384V46.7519H47.0245V9.22559Z" fill="#FAFAFA"/>
<path d="M10.8383 47.0419C10.8383 47.0419 10.4887 47.4479 9.90596 48.0859C9.32325 48.6659 8.50746 49.5359 7.57513 50.406C6.6428 51.276 5.82701 52.088 5.24431 52.668C4.60333 53.248 4.25371 53.596 4.19543 53.538C4.19543 53.538 4.48679 53.132 5.06949 52.494C5.6522 51.914 6.46799 51.044 7.40032 50.1739C8.33265 49.3039 9.14844 48.4919 9.78942 47.9119C10.4304 47.3319 10.78 46.9839 10.8383 47.0419Z" fill="#E0E0E0"/>
<path d="M46.9662 46.9258C46.9662 46.9258 47.3741 47.2738 48.0151 47.8538C48.5978 48.4338 49.4718 49.2458 50.3459 50.1738C51.2199 51.1018 52.0357 51.9138 52.6184 52.4938C53.2012 53.1318 53.5508 53.4798 53.4925 53.5378C53.4925 53.5378 53.0846 53.2478 52.4436 52.6678C51.8609 52.0878 50.9869 51.2758 50.1128 50.3478C49.2387 49.4198 48.423 48.6078 47.8402 47.9698C47.3158 47.3318 46.9662 46.9838 46.9662 46.9258Z" fill="#E0E0E0"/>
<path d="M46.9078 9.34144C46.9078 9.34144 47.2575 8.93544 47.8402 8.29743C48.4229 7.71743 49.2387 6.84742 50.171 5.97741C51.1033 5.10741 51.9191 4.2954 52.5018 3.7154C53.1428 3.13539 53.4924 2.78739 53.5507 2.84539C53.5507 2.84539 53.2593 3.25139 52.6766 3.8894C52.0939 4.4694 51.2781 5.33941 50.3458 6.20942C49.4135 7.07942 48.5977 7.89143 47.9567 8.47143C47.3157 9.05144 46.9078 9.39944 46.9078 9.34144Z" fill="#E0E0E0"/>
<path d="M10.7218 9.45751C10.7218 9.45751 10.3139 9.10951 9.67296 8.5295C9.09025 7.9495 8.21619 7.13749 7.34213 6.20949C6.46807 5.28148 5.65228 4.46947 5.06958 3.88947C4.48687 3.25146 4.13725 2.90346 4.19552 2.84546C4.25379 2.84546 4.60341 3.19346 5.24439 3.77347C5.8271 4.35347 6.70116 5.16548 7.57522 6.09348C8.44928 7.02149 9.26507 7.8335 9.84777 8.4715C10.4305 9.05151 10.7218 9.39951 10.7218 9.45751Z" fill="#E0E0E0"/>
<path d="M46.9079 46.8098C46.9079 46.8098 46.9079 46.7518 46.9079 46.6358C46.9079 46.5198 46.9079 46.3458 46.9079 46.1138C46.9079 45.6498 46.9079 44.9538 46.9079 44.0838C46.9079 42.2857 46.9079 39.7337 46.8496 36.4277C46.8496 29.8736 46.7914 20.4776 46.7914 9.28348L46.9079 9.39948C36.3609 9.39948 24.0075 9.39948 10.8383 9.39948L10.9549 9.28348C10.9549 23.0876 10.9549 35.9637 10.9549 46.8098L10.8383 46.6938C21.6767 46.6938 30.6504 46.7518 36.9436 46.7518C40.0902 46.7518 42.5959 46.7518 44.2857 46.8098C45.1015 46.8098 45.8008 46.8098 46.2086 46.8098C46.4417 46.8098 46.6165 46.8098 46.7331 46.8098C46.8496 46.7518 46.9079 46.8098 46.9079 46.8098C46.9079 46.8098 46.8496 46.8098 46.7331 46.8098C46.6165 46.8098 46.4417 46.8098 46.2669 46.8098C45.8007 46.8098 45.1598 46.8098 44.344 46.8098C42.6541 46.8098 40.2068 46.8098 37.0601 46.8678C30.7086 46.8678 21.6767 46.9258 10.8383 46.9258H10.7218V46.8098C10.7218 35.9637 10.7218 23.0296 10.7218 9.28348V9.16748H10.8383C24.0075 9.16748 36.3609 9.16748 46.9079 9.16748H47.0244V9.28348C47.0244 20.5356 46.9662 29.9316 46.9662 36.5437C46.9662 39.7917 46.9662 42.4017 46.9079 44.1418C46.9079 45.0118 46.9079 45.7078 46.9079 46.1718C46.9079 46.4038 46.9079 46.5778 46.9079 46.6938C46.9079 46.7518 46.9079 46.8098 46.9079 46.8098Z" fill="#E0E0E0"/>
<path d="M20.3364 24.9436C20.3364 24.9436 19.5789 34.2237 29.6597 34.2237C29.718 29.2356 25.5808 25.3496 20.3364 24.9436Z" fill="#EBEBEB"/>
<path d="M38.8665 24.9435C38.8665 24.9435 29.5432 24.1895 29.5432 34.2236C34.4962 34.2236 38.4586 30.1636 38.8665 24.9435Z" fill="#EBEBEB"/>
<path d="M29.2519 19.8396C29.2519 19.8396 21.6184 26.6837 29.6598 34.2237C33.3891 30.2797 33.0977 24.0736 29.2519 19.8396Z" fill="#E0E0E0"/>
<path d="M184.368 190.361C181.28 188.447 177.784 187.229 174.171 186.881C172.481 186.707 170.675 186.765 169.335 187.751C169.043 187.983 168.752 188.273 168.81 188.621C168.869 188.853 169.102 189.085 169.276 189.201C173.53 192.333 179.765 192.739 184.368 190.361Z" fill="#E0E0E0"/>
<path d="M184.135 190.071C181.805 188.273 179.532 186.475 177.551 184.329C175.628 182.183 173.996 179.573 173.414 176.731C173.239 175.861 173.181 174.875 173.763 174.179C179.008 178.239 183.087 183.517 184.135 190.071Z" fill="#E0E0E0"/>
<path d="M184.31 190.303C183.902 187.461 183.786 184.503 184.427 181.719C185.068 178.935 186.641 176.209 189.03 174.643C189.963 176.731 189.555 179.167 188.914 181.371C187.923 184.793 186.408 187.983 184.369 190.941" fill="#E0E0E0"/>
<path d="M189.438 199.467C186.35 199.815 183.611 201.497 181.28 203.585C178.949 205.673 177.318 208.515 176.619 211.531C179.649 211.357 182.271 209.211 184.135 206.775C186.058 204.397 187.34 201.729 189.438 199.467Z" fill="#E0E0E0"/>
<path d="M190.545 200.917C188.04 194.769 188.972 187.345 192.876 182.009C194.682 188.273 194.042 195.349 190.545 200.917Z" fill="#E0E0E0"/>
<path d="M197.363 208.921C194.508 208.747 191.652 209.443 189.205 210.835C186.758 212.227 184.718 214.373 183.436 216.925C183.261 217.273 183.087 217.679 183.32 218.027C183.494 218.317 183.902 218.317 184.252 218.317C186.991 218.143 189.438 216.519 191.419 214.605C193.4 212.749 195.149 210.603 197.363 208.979" fill="#E0E0E0"/>
<path d="M197.13 208.515C195.673 203.875 195.557 198.829 196.897 194.131C197.421 192.275 198.237 190.303 199.985 189.433C200.16 189.375 200.276 189.317 200.451 189.375C200.626 189.433 200.684 189.607 200.743 189.723C201.384 190.999 201.558 192.449 201.442 193.841C201.384 195.233 201.092 196.625 200.801 198.017C200.276 200.569 199.985 203.295 198.587 205.499C198.237 206.021 197.946 206.601 197.713 207.123C197.421 207.703 197.421 207.877 197.188 208.341" fill="#E0E0E0"/>
<path d="M215.077 211.183C213.737 206.137 215.135 200.047 218.34 195.929C218.573 195.639 218.865 195.291 219.273 195.349C219.855 195.407 220.03 196.161 219.972 196.741C219.739 201.903 218.049 206.949 215.077 211.183Z" fill="#E0E0E0"/>
<path d="M216.709 212.285C222.827 213.851 229.878 212.343 235.006 208.573C231.976 207.065 228.421 206.601 225.1 207.355C221.778 208.109 218.748 209.559 216.709 212.285Z" fill="#E0E0E0"/>
<path d="M218.049 208.921C221.487 203.353 228.072 199.699 234.656 199.351C233.899 202.019 231.684 204.107 229.237 205.325C226.731 206.601 223.993 207.123 221.254 207.645C220.205 207.877 218.748 208.109 218.049 208.921Z" fill="#E0E0E0"/>
<path d="M215.427 192.681C216.359 189.491 217.291 186.301 217.524 182.995C217.758 179.689 217.291 176.267 215.602 173.425C212.397 179.631 212.047 186.881 215.31 193.029" fill="#E0E0E0"/>
<path d="M226.265 187.229C230.053 180.443 237.686 174.991 245.436 174.237C242.464 181.603 234.306 187.345 226.265 187.229Z" fill="#E0E0E0"/>
<path d="M223.876 188.563C229.47 189.433 234.248 192.971 239.493 195.117C240.6 195.581 241.823 195.929 243.047 195.813C244.271 195.639 245.436 194.827 245.728 193.667C245.961 192.681 245.495 191.637 244.795 190.941C244.096 190.245 243.164 189.781 242.231 189.375C236.521 186.997 230.402 186.939 224.401 188.389" fill="#E0E0E0"/>
<path d="M220.613 192.449C221.895 192.797 222.303 193.493 223.293 194.305C226.731 197.205 230.81 199.293 235.122 200.337C235.588 200.453 236.171 200.511 236.404 200.105C236.579 199.757 236.346 199.293 236.113 199.003C234.306 196.741 231.684 195.175 228.946 194.189C226.207 193.203 223.818 191.927 220.555 192.217" fill="#E0E0E0"/>
<path d="M217 168.785C221.545 173.019 227.955 175.223 234.19 174.585C234.481 174.585 234.773 174.527 234.948 174.295C235.355 173.831 234.889 173.077 234.365 172.729C229.295 168.843 223.177 167.219 217 168.785Z" fill="#E0E0E0"/>
<path d="M221.312 167.219C227.314 162.695 235.588 161.361 242.756 163.681C240.075 166.349 236.288 167.741 232.558 168.147C228.771 168.553 224.983 168.147 221.312 167.219Z" fill="#E0E0E0"/>
<path d="M219.622 156.373C219.098 151.327 219.448 147.383 219.098 142.337C219.098 141.931 218.981 141.467 218.632 141.293C218.107 141.119 217.641 141.757 217.466 142.279C215.951 146.919 216.767 152.255 219.622 156.257" fill="#E0E0E0"/>
<path d="M219.214 156.895C222.652 154.807 225.216 152.023 227.547 148.833C229.179 146.571 230.577 143.903 230.228 141.119C227.897 141.061 225.682 142.337 224.226 144.077C222.711 145.817 221.837 148.021 221.137 150.225C220.496 152.487 220.03 154.749 219.214 156.895Z" fill="#E0E0E0"/>
<path d="M227.43 154.633C234.947 151.849 241.94 147.789 248 142.569C245.553 141.583 242.756 142.163 240.25 143.149C234.656 145.411 230.053 149.181 227.314 154.575" fill="#E0E0E0"/>
<path d="M221.545 159.679C225.333 160.085 229.179 160.375 232.966 159.737C236.696 159.099 240.192 157.649 243.63 156.199C243.921 156.083 244.212 155.909 244.329 155.677C244.446 155.387 244.329 154.981 244.096 154.749C243.863 154.517 243.513 154.401 243.164 154.343C239.376 153.299 235.355 153.763 231.626 155.039C227.955 156.257 224.925 157.707 221.545 159.679Z" fill="#E0E0E0"/>
<path d="M199.869 168.959C197.305 163.739 197.421 157.707 199.694 152.313C201.267 154.691 201.442 157.765 201.151 160.607C200.859 163.449 199.985 166.349 199.927 169.249" fill="#E0E0E0"/>
<path d="M189.496 163.797C183.028 163.681 176.56 166.407 172.19 171.163C175.395 171.685 178.716 170.815 181.688 169.423C184.602 167.973 187.224 166.001 189.846 164.029" fill="#E0E0E0"/>
<path d="M182.562 161.477C179.416 161.245 176.327 160.839 173.297 161.767C170.267 162.695 167.47 164.783 166.246 167.741C169.218 168.089 172.19 167.335 174.929 166.117C177.667 164.841 180.115 163.159 182.562 161.477Z" fill="#E0E0E0"/>
<path d="M192.876 161.593C190.021 159.737 187.107 157.823 183.786 157.069C180.464 156.315 176.619 156.895 174.346 159.331C177.026 160.897 180.29 161.071 183.378 161.071C186.466 161.071 190.312 161.013 193.226 162.057" fill="#E0E0E0"/>
<path d="M192.876 161.709C188.04 156.953 186.175 148.427 188.098 141.931C191.944 147.731 193.634 154.865 192.876 161.709Z" fill="#E0E0E0"/>
<path d="M206.278 148.253C207.211 146.107 207.852 143.903 208.667 141.757C209.483 139.611 210.532 137.465 212.047 135.725C213.62 133.985 215.776 132.709 218.049 132.593C216.592 139.147 212.222 145.005 206.337 148.253" fill="#E0E0E0"/>
<path d="M203.831 151.037C202.316 148.949 200.568 146.107 198.47 144.599C196.431 143.033 193.75 142.105 191.245 142.685C193.808 147.267 198.645 150.457 203.831 151.037Z" fill="#E0E0E0"/>
<path d="M204.297 148.427C203.306 145.933 202.316 143.381 201.908 140.713C201.5 138.045 201.733 135.203 203.132 132.825C205.812 137.871 206.686 143.265 204.472 148.485" fill="#E0E0E0"/>
<path d="M206.278 132.825C207.793 127.837 212.397 124.183 217.35 122.501C217.991 122.269 218.632 122.095 219.273 122.211C219.914 122.327 220.555 122.733 220.671 123.371C220.846 124.241 220.147 124.995 219.506 125.517C215.66 128.823 211.115 131.317 206.278 132.825Z" fill="#E0E0E0"/>
<path d="M206.337 128.765C206.511 125.575 206.744 122.269 207.793 119.252C208.842 116.236 210.882 113.336 213.795 112.002C214.32 115.25 212.863 118.498 211.115 121.283C209.367 124.067 207.269 126.735 206.22 129.809" fill="#E0E0E0"/>
<path d="M206.278 130.969C205.055 127.315 204.88 122.733 202.724 119.543C201.209 117.339 198.761 115.831 197.421 113.51C196.547 115.715 196.838 118.209 197.713 120.413C198.645 122.559 200.16 124.473 201.733 126.155C203.365 127.837 204.763 129.171 206.278 130.969Z" fill="#E0E0E0"/>
<path d="M206.278 237.863C206.162 237.863 206.104 213.619 206.104 183.749C206.104 153.879 206.162 129.635 206.278 129.635C206.395 129.635 206.453 153.821 206.453 183.749C206.453 213.677 206.395 237.863 206.278 237.863Z" fill="#E0E0E0"/>
<path d="M227.547 165.305C227.547 165.305 227.256 165.421 226.615 165.653C225.974 165.885 225.1 166.175 224.109 166.523C222.011 167.219 219.098 168.263 215.893 169.597C212.746 170.931 209.775 172.033 208.143 173.483C207.327 174.179 206.803 174.991 206.57 175.513C206.337 176.093 206.278 176.441 206.278 176.441C206.278 176.441 206.278 176.325 206.278 176.209C206.278 176.035 206.337 175.803 206.453 175.513C206.686 174.933 207.152 174.063 207.968 173.309C208.842 172.555 210.008 171.859 211.348 171.221C212.688 170.583 214.203 169.945 215.776 169.307C218.923 168.031 221.895 166.987 224.051 166.349C225.1 166.001 225.974 165.769 226.615 165.595C227.197 165.363 227.547 165.305 227.547 165.305Z" fill="#E0E0E0"/>
<path d="M234.54 148.311C234.54 148.311 234.481 148.427 234.306 148.601C234.073 148.775 233.84 149.065 233.549 149.355C232.85 149.993 231.859 150.921 230.635 151.965C228.13 154.169 224.692 157.243 220.962 160.549C217.175 163.913 213.912 167.103 211.639 169.539C210.532 170.757 209.6 171.743 209.017 172.439C208.726 172.787 208.493 173.019 208.318 173.251C208.143 173.425 208.085 173.541 208.026 173.541C208.026 173.541 208.085 173.425 208.259 173.251C208.434 173.077 208.609 172.787 208.9 172.381C209.483 171.627 210.357 170.641 211.464 169.423C213.679 166.987 216.942 163.739 220.729 160.375C224.517 157.011 228.013 153.995 230.519 151.849C231.743 150.805 232.791 149.935 233.491 149.297C233.84 149.007 234.073 148.775 234.306 148.601C234.423 148.369 234.481 148.253 234.54 148.311Z" fill="#E0E0E0"/>
<path d="M216.767 163.913C216.65 163.855 217.466 162.057 218.224 159.737C219.04 157.417 219.389 155.503 219.506 155.503C219.622 155.503 219.389 157.533 218.573 159.853C218.166 161.013 217.758 162.057 217.408 162.753C217.058 163.507 216.825 163.971 216.767 163.913Z" fill="#E0E0E0"/>
<path d="M206.278 178.587C206.278 178.587 206.045 178.355 205.696 177.891C205.288 177.369 204.821 176.731 204.181 175.977C202.899 174.353 201.209 172.149 199.228 169.713C197.305 167.277 195.498 165.073 194.216 163.507C193.634 162.753 193.109 162.115 192.701 161.651C192.352 161.187 192.177 160.955 192.177 160.955C192.177 160.955 192.41 161.187 192.818 161.593C193.226 161.999 193.75 162.637 194.449 163.391C195.79 164.957 197.596 167.103 199.577 169.539C201.5 171.975 203.248 174.237 204.414 175.919C204.996 176.731 205.521 177.427 205.812 177.891C206.162 178.297 206.337 178.587 206.278 178.587Z" fill="#E0E0E0"/>
<path d="M201.617 172.613C201.558 172.671 200.335 171.221 199.636 168.959C199.169 167.393 199.111 165.943 199.169 165.305H199.344C199.286 165.595 199.228 165.711 199.169 165.711C199.169 165.711 199.111 165.537 199.169 165.247H199.344C199.402 165.885 199.519 167.277 199.985 168.843C200.626 171.047 201.733 172.555 201.617 172.613Z" fill="#E0E0E0"/>
<path d="M195.615 165.131C195.557 165.189 195.149 164.667 194.275 164.319C193.342 163.971 192.002 163.913 190.487 164.029C188.972 164.145 187.632 164.435 186.699 164.667C185.709 164.899 185.126 165.073 185.126 165.015C185.126 164.957 185.651 164.725 186.641 164.377C187.573 164.087 188.972 163.739 190.487 163.681C192.002 163.565 193.459 163.681 194.391 164.087C195.323 164.493 195.673 165.073 195.615 165.131Z" fill="#E0E0E0"/>
<path d="M194.216 163.275C194.216 163.333 193.4 162.985 192.118 162.521C190.837 162.057 188.972 161.593 186.932 161.477C184.835 161.303 182.97 161.477 181.63 161.767C180.29 161.999 179.474 162.231 179.474 162.173C179.474 162.173 179.649 162.057 180.056 161.941C180.406 161.825 180.931 161.651 181.63 161.477C182.97 161.187 184.893 160.955 187.049 161.129C189.147 161.303 191.011 161.825 192.293 162.289C192.934 162.521 193.459 162.753 193.808 162.985C194.041 163.159 194.216 163.275 194.216 163.275Z" fill="#E0E0E0"/>
<path d="M206.278 155.561C206.162 155.561 205.521 153.241 204.763 150.283C204.006 147.325 203.481 144.947 203.598 144.947C203.714 144.947 204.355 147.267 205.113 150.225C205.812 153.125 206.337 155.503 206.278 155.561Z" fill="#E0E0E0"/>
<path d="M206.337 155.561C206.22 155.619 205.812 153.995 204.647 152.429C203.54 150.805 202.083 149.935 202.141 149.877C202.141 149.819 202.549 149.993 203.073 150.341C203.598 150.747 204.297 151.385 204.88 152.197C206.162 153.879 206.453 155.561 206.337 155.561Z" fill="#E0E0E0"/>
<path d="M206.278 224.987C206.22 224.987 206.162 224.407 205.87 223.363C205.579 222.319 205.113 220.869 204.239 219.187C202.549 215.765 199.519 211.415 195.615 207.065C193.692 204.861 191.827 202.831 190.254 200.859C188.681 198.887 187.34 196.973 186.408 195.349C185.476 193.667 184.835 192.275 184.485 191.231C184.31 190.709 184.194 190.303 184.077 190.071C184.019 189.781 183.961 189.665 183.961 189.665C184.019 189.665 184.194 190.245 184.543 191.231C184.951 192.217 185.592 193.609 186.583 195.233C187.573 196.857 188.855 198.713 190.487 200.685C192.06 202.657 193.925 204.687 195.906 206.891C199.81 211.241 202.84 215.649 204.472 219.129C205.288 220.869 205.754 222.377 205.987 223.421C206.104 223.943 206.162 224.349 206.22 224.639C206.278 224.813 206.278 224.987 206.278 224.987Z" fill="#E0E0E0"/>
<path d="M225.508 203.353C225.508 203.353 225.158 203.585 224.517 203.933C223.876 204.281 222.944 204.861 221.895 205.673C220.846 206.485 219.681 207.529 218.457 208.805C217.233 210.081 216.01 211.531 214.728 213.097C212.222 216.229 209.833 219.071 208.434 221.275C207.735 222.377 207.211 223.305 206.861 223.943C206.511 224.581 206.337 224.987 206.278 224.929C206.278 224.929 206.278 224.813 206.395 224.639C206.453 224.465 206.57 224.175 206.744 223.827C207.036 223.131 207.56 222.203 208.26 221.043C209.658 218.781 211.989 215.939 214.494 212.749C215.776 211.183 217 209.675 218.224 208.457C219.447 207.181 220.671 206.137 221.72 205.383C222.827 204.571 223.76 204.049 224.401 203.759C224.75 203.585 224.983 203.469 225.158 203.411C225.391 203.411 225.508 203.353 225.508 203.353Z" fill="#E0E0E0"/>
<path d="M225.857 210.371C225.857 210.429 225.041 210.545 223.701 210.661C222.419 210.835 220.555 211.067 218.632 211.647C216.709 212.285 215.135 213.213 214.087 214.025C213.038 214.837 212.572 215.475 212.513 215.475C212.513 215.475 212.572 215.301 212.805 215.011C213.038 214.721 213.387 214.315 213.912 213.909C214.902 213.039 216.534 212.053 218.457 211.415C220.438 210.777 222.245 210.603 223.585 210.487C225.042 210.313 225.857 210.313 225.857 210.371Z" fill="#E0E0E0"/>
<path d="M213.213 214.663C213.096 214.605 214.087 213.155 214.786 211.183C215.485 209.211 215.66 207.471 215.776 207.471C215.835 207.471 215.835 207.935 215.718 208.631C215.66 209.327 215.485 210.313 215.077 211.299C214.728 212.343 214.203 213.155 213.854 213.735C213.504 214.373 213.271 214.721 213.213 214.663Z" fill="#E0E0E0"/>
<path d="M231.743 184.561C231.743 184.561 231.626 184.619 231.393 184.735C231.102 184.851 230.81 185.025 230.402 185.199C229.936 185.373 229.412 185.605 228.829 185.953C228.246 186.243 227.547 186.591 226.79 186.997C226.44 187.229 226.032 187.403 225.624 187.635C225.216 187.867 224.808 188.157 224.4 188.389C223.526 188.911 222.711 189.549 221.778 190.187C219.972 191.521 218.107 193.145 216.301 195.001C214.494 196.857 212.979 198.771 211.639 200.627C210.998 201.555 210.415 202.425 209.891 203.295C209.658 203.701 209.367 204.107 209.134 204.513C208.9 204.919 208.726 205.325 208.493 205.673C208.085 206.427 207.793 207.123 207.502 207.761C207.211 208.341 206.977 208.921 206.803 209.327C206.628 209.733 206.511 210.081 206.395 210.313C206.278 210.545 206.22 210.661 206.22 210.661C206.22 210.661 206.22 210.545 206.337 210.313C206.453 210.023 206.57 209.675 206.686 209.269C206.861 208.805 207.036 208.283 207.327 207.645C207.618 207.007 207.91 206.311 208.259 205.557C208.434 205.151 208.667 204.803 208.842 204.339C209.075 203.933 209.308 203.527 209.541 203.063C210.008 202.193 210.649 201.323 211.231 200.337C212.513 198.481 214.087 196.509 215.893 194.653C217.699 192.797 219.622 191.173 221.429 189.839C222.361 189.201 223.235 188.563 224.109 188.041C224.517 187.809 224.925 187.519 225.333 187.287C225.741 187.055 226.149 186.823 226.498 186.649C227.256 186.243 227.955 185.895 228.538 185.605C229.12 185.315 229.703 185.083 230.111 184.909C230.519 184.735 230.868 184.619 231.16 184.503C231.568 184.561 231.684 184.561 231.743 184.561Z" fill="#E0E0E0"/>
<path d="M216.534 194.711C216.476 194.711 216.651 194.131 217.35 193.493C218.049 192.855 219.273 192.275 220.729 192.217C222.186 192.159 223.41 192.565 224.284 192.913C225.158 193.261 225.624 193.493 225.624 193.551C225.624 193.609 225.041 193.435 224.226 193.145C223.352 192.855 222.128 192.507 220.788 192.565C219.448 192.623 218.224 193.145 217.583 193.667C216.825 194.189 216.592 194.711 216.534 194.711Z" fill="#E0E0E0"/>
<path d="M214.261 197.031C214.145 196.973 215.019 195.755 215.194 193.957C215.427 192.159 214.844 190.767 214.961 190.709C215.019 190.709 215.194 190.999 215.369 191.637C215.543 192.217 215.66 193.087 215.543 194.015C215.427 194.943 215.135 195.755 214.844 196.277C214.553 196.799 214.261 197.031 214.261 197.031Z" fill="#E0E0E0"/>
<path d="M189.496 228.409C190.021 237.689 192.818 247.086 197.13 256.598H215.893C220.03 247.202 222.594 237.805 223.06 228.409H189.496Z" fill="#E0E0E0"/>
<path d="M219.972 243.431C219.972 243.547 213.795 243.605 206.162 243.605C198.528 243.605 192.352 243.547 192.352 243.431C192.352 243.315 198.528 243.257 206.162 243.257C213.853 243.257 219.972 243.315 219.972 243.431Z" fill="#FAFAFA"/>
<path d="M219.564 246.737C219.564 246.853 213.795 246.911 206.628 246.911C199.519 246.911 193.692 246.853 193.692 246.737C193.692 246.621 199.461 246.563 206.628 246.563C213.795 246.563 219.564 246.679 219.564 246.737Z" fill="#FAFAFA"/>
<path d="M197.421 234.499C197.538 234.499 197.596 236.413 197.596 238.791C197.596 241.169 197.538 243.083 197.421 243.083C197.305 243.083 197.246 241.169 197.246 238.791C197.246 236.413 197.305 234.499 197.421 234.499Z" fill="#FAFAFA"/>
<path d="M207.444 234.499C207.56 234.499 207.619 236.471 207.619 238.965C207.619 241.401 207.56 243.431 207.444 243.431C207.327 243.431 207.269 241.459 207.269 238.965C207.269 236.529 207.385 234.499 207.444 234.499Z" fill="#FAFAFA"/>
<path d="M216.884 234.441C217 234.441 217.058 236.471 217.058 238.965C217.058 241.459 217 243.489 216.884 243.489C216.767 243.489 216.709 241.459 216.709 238.965C216.709 236.471 216.767 234.441 216.884 234.441Z" fill="#FAFAFA"/>
<path d="M222.419 234.499C222.419 234.615 215.194 234.673 206.278 234.673C197.363 234.673 190.137 234.615 190.137 234.499C190.137 234.383 197.363 234.325 206.278 234.325C215.194 234.325 222.419 234.441 222.419 234.499Z" fill="#FAFAFA"/>
<path d="M212.397 142.163H0V148.659H212.397V142.163Z" fill="#EBEBEB"/>
<path d="M18.3553 147.905L2.44739 256.597H5.88536L25.5226 148.717L18.3553 147.905Z" fill="#EBEBEB"/>
<path d="M197.363 147.209L214.203 256.598H210.765L190.254 148.195L197.363 147.209Z" fill="#EBEBEB"/>
<path d="M8.04124 115.946C8.04124 116.236 8.04124 130.621 8.04124 130.621H5.59387V132.187H8.04124V141.989H54.0168V133.057H50.6371V131.085H54.0168V128.185H55.5318V126.851H53.7254V115.888H8.04124V115.946Z" fill="#F5F5F5"/>
<path d="M41.8383 115.947V141.815H54.0168V132.883H50.6371V131.143L54.0168 131.201V128.243H55.5901L55.5319 126.735H53.7837V115.947H41.8383Z" fill="#E0E0E0"/>
<path d="M42.7123 131.955C42.7123 132.071 34.3796 132.129 24.124 132.129C13.8684 132.129 5.53564 132.071 5.53564 131.955C5.53564 131.839 13.8684 131.781 24.124 131.781C34.3796 131.781 42.7123 131.897 42.7123 131.955Z" fill="#E0E0E0"/>
<path d="M42.7123 130.505C42.7123 130.621 34.3796 130.679 24.124 130.679C13.8684 130.679 5.53564 130.621 5.53564 130.505C5.53564 130.389 13.8684 130.331 24.124 130.331C34.3796 130.331 42.7123 130.389 42.7123 130.505Z" fill="#E0E0E0"/>
<path d="M45.1014 126.445C45.1014 126.561 36.7687 126.619 26.513 126.619C16.2574 126.619 7.92468 126.561 7.92468 126.445C7.92468 126.329 16.2574 126.271 26.513 126.271C36.7687 126.329 45.1014 126.387 45.1014 126.445Z" fill="#E0E0E0"/>
<path d="M45.3345 137.407C45.3345 137.523 37.0018 137.581 26.7462 137.581C16.4905 137.581 8.15784 137.523 8.15784 137.407C8.15784 137.291 16.4905 137.233 26.7462 137.233C37.0018 137.233 45.3345 137.291 45.3345 137.407Z" fill="#E0E0E0"/>
<path d="M57.4548 106.086H49.4135V115.598H57.4548V106.086Z" fill="#F5F5F5"/>
<path d="M49.7048 105.506H13.4604V116.236H49.7048V105.506Z" fill="#E0E0E0"/>
<path d="M57.6879 106.376H48.7142V105.448H57.6879C57.921 105.448 58.1541 105.622 58.1541 105.912C58.1541 106.202 57.921 106.376 57.6879 106.376Z" fill="#E0E0E0"/>
<path d="M57.6879 116.178H48.7142V115.25H57.6879C57.921 115.25 58.1541 115.424 58.1541 115.714C58.1541 116.004 57.921 116.178 57.6879 116.178Z" fill="#E0E0E0"/>
<path d="M46.8496 105.506H42.5958V116.236H46.8496V105.506Z" fill="#EBEBEB"/>
<path d="M21.1522 105.622H16.8984V116.352H21.1522V105.622Z" fill="#EBEBEB"/>
<path d="M57.4548 107.652C57.4548 107.652 55.7066 107.71 53.5506 107.71C51.3946 107.71 49.6465 107.71 49.6465 107.652C49.6465 107.652 51.3946 107.594 53.5506 107.594C55.7066 107.652 57.4548 107.652 57.4548 107.652Z" fill="#E0E0E0"/>
<path d="M57.4548 109.102C57.4548 109.102 55.7066 109.16 53.5506 109.16C51.3946 109.16 49.6465 109.16 49.6465 109.102C49.6465 109.102 51.3946 109.044 53.5506 109.044C55.7066 109.044 57.4548 109.044 57.4548 109.102Z" fill="#E0E0E0"/>
<path d="M57.4548 110.842C57.4548 110.842 55.7066 110.9 53.5506 110.9C51.3946 110.9 49.6465 110.9 49.6465 110.842C49.6465 110.842 51.3946 110.784 53.5506 110.784C55.7066 110.784 57.4548 110.842 57.4548 110.842Z" fill="#E0E0E0"/>
<path d="M57.4548 112.582C57.4548 112.582 55.7066 112.64 53.5506 112.64C51.3946 112.64 49.6465 112.64 49.6465 112.582C49.6465 112.582 51.3946 112.524 53.5506 112.524C55.7066 112.582 57.4548 112.582 57.4548 112.582Z" fill="#E0E0E0"/>
<path d="M57.4548 114.38C57.4548 114.38 55.7066 114.438 53.5506 114.438C51.3946 114.438 49.6465 114.438 49.6465 114.38C49.6465 114.322 51.3946 114.322 53.5506 114.322C55.7066 114.322 57.4548 114.322 57.4548 114.38Z" fill="#E0E0E0"/>
<path d="M40.265 109.914H23.9492V111.828H40.265V109.914Z" fill="#EBEBEB"/>
<path d="M42.0714 95.1243L46.6165 105.622H43.703L41.7218 99.9963L42.0714 95.1243Z" fill="#E0E0E0"/>
<path d="M28.2613 85.5542L26.5132 105.622H41.2557L42.8872 85.5542H28.2613Z" fill="#EBEBEB"/>
<path d="M29.7181 87.1783L28.1448 103.998L39.2162 104.114L40.7312 87.0623L29.7181 87.1783Z" fill="#FAFAFA"/>
<path d="M32.0489 89.4983L31.1748 101.04H37.0601L38.109 89.4983H32.0489Z" fill="#E0E0E0"/>
<path d="M201.43 10.9515L195.953 10.9807L196.098 37.9509L201.575 37.9217L201.43 10.9515Z" fill="#E0E0E0"/>
<path d="M162.829 10.9865L148.727 11.0615L148.807 25.9676L162.909 25.8926L162.829 10.9865Z" fill="#EBEBEB"/>
<path d="M176.872 10.9285L162.771 11.0037L162.851 25.9098L176.952 25.8347L176.872 10.9285Z" fill="#F5F5F5"/>
<path d="M148.765 15.1997C158.147 15.2577 167.528 15.1997 176.91 15.0837C177.085 15.0837 177.085 14.7937 176.91 14.7937C167.528 14.7357 158.147 14.7937 148.765 14.9677C148.59 14.9677 148.59 15.1997 148.765 15.1997Z" fill="#E0E0E0"/>
<path d="M165.575 25.688L139.936 25.8247L140.001 37.9468L165.64 37.8101L165.575 25.688Z" fill="#EBEBEB"/>
<path d="M191.098 25.5139L165.459 25.6506L165.524 37.7727L191.163 37.636L191.098 25.5139Z" fill="#F5F5F5"/>
<path d="M139.966 29.1779C156.981 29.3519 174.113 29.1779 191.128 28.9459C191.303 28.9459 191.303 28.6559 191.128 28.6559C174.113 28.5399 156.981 28.5979 139.966 28.9459C139.791 28.9459 139.791 29.1779 139.966 29.1779Z" fill="#E0E0E0"/>
<path d="M229.703 37.936H130.352V42.2861H229.703V37.936Z" fill="#E0E0E0"/>
<path d="M150.63 40.0242H146.609V54.8723H150.63V40.0242Z" fill="#E0E0E0"/>
<path d="M210.823 40.0242H206.803V54.8723H210.823V40.0242Z" fill="#E0E0E0"/>
<path d="M206.706 0.859464L201.228 0.888672L201.428 38.009L206.906 37.9797L206.706 0.859464Z" fill="#EBEBEB"/>
<path d="M215.174 7.81155L206.725 7.85669L206.887 37.9589L215.336 37.9138L215.174 7.81155Z" fill="#F5F5F5"/>
<path d="M215.135 13.5756C215.135 13.6336 213.213 13.7496 210.882 13.7496C208.551 13.7496 206.628 13.6916 206.628 13.5756C206.628 13.5176 208.551 13.4016 210.882 13.4016C213.271 13.4596 215.135 13.5176 215.135 13.5756Z" fill="#E0E0E0"/>
<path d="M215.135 12.2997C215.135 12.3577 213.213 12.4737 210.882 12.4737C208.551 12.4737 206.628 12.4157 206.628 12.2997C206.628 12.2417 208.551 12.1257 210.882 12.1257C213.271 12.1837 215.135 12.2417 215.135 12.2997Z" fill="#E0E0E0"/>
<path d="M215.135 33.3537C215.135 33.4117 213.213 33.5277 210.882 33.5277C208.551 33.5277 206.628 33.4697 206.628 33.3537C206.628 33.2377 208.551 33.1797 210.882 33.1797C213.271 33.1797 215.135 33.2377 215.135 33.3537Z" fill="#E0E0E0"/>
<path d="M215.135 32.0778C215.135 32.1358 213.213 32.2518 210.882 32.2518C208.551 32.2518 206.628 32.1938 206.628 32.0778C206.628 31.9618 208.551 31.9038 210.882 31.9038C213.271 31.9038 215.135 32.0198 215.135 32.0778Z" fill="#E0E0E0"/>
<path d="M211.057 29.2938C210.998 29.2938 210.882 26.2778 210.882 22.5077C210.882 18.7377 210.94 15.7217 211.057 15.7217C211.115 15.7217 211.231 18.7377 211.231 22.5077C211.231 26.2778 211.115 29.2938 211.057 29.2938Z" fill="#E0E0E0"/>
<path d="M224.459 15.1418H215.252V37.82H224.459V15.1418Z" fill="#EBEBEB"/>
<path d="M205.463 7.19565C205.463 8.06566 204.763 8.76166 203.889 8.76166C203.015 8.76166 202.316 8.06566 202.316 7.19565C202.316 6.32564 203.015 5.62964 203.889 5.62964C204.763 5.62964 205.463 6.32564 205.463 7.19565Z" fill="#E0E0E0"/>
<path d="M204.414 11.4878H203.423V33.586H204.414V11.4878Z" fill="#E0E0E0"/>
<path d="M114.21 183.169L138.276 256.598H133.906L105.761 183.169H114.21Z" fill="#E0E0E0"/>
<path d="M114.21 183.169C114.21 183.169 114.036 183.169 113.628 183.169C113.278 183.169 112.695 183.169 111.996 183.169C110.539 183.169 108.442 183.169 105.703 183.227L105.761 183.111C110.539 195.581 120.97 222.667 133.032 253.987C133.382 254.857 133.673 255.727 134.022 256.539L133.906 256.423C135.421 256.423 136.878 256.423 138.276 256.423L138.101 256.655C131.4 236.065 125.398 217.679 121.086 204.513C118.93 197.901 117.241 192.565 116.017 188.911C115.434 187.055 114.968 185.663 114.677 184.677C114.502 184.213 114.385 183.807 114.327 183.575C114.269 183.285 114.21 183.169 114.21 183.169C114.21 183.169 114.269 183.285 114.327 183.517C114.385 183.749 114.56 184.155 114.677 184.619C115.026 185.605 115.492 186.997 116.075 188.795C117.299 192.449 119.047 197.785 121.203 204.339C125.573 217.563 131.575 235.949 138.335 256.539L138.393 256.713H138.16C136.761 256.713 135.304 256.713 133.789 256.713H133.673L133.615 256.597C133.265 255.727 132.974 254.915 132.624 254.045C120.62 222.667 110.306 195.581 105.528 183.111L105.47 182.995H105.586C108.325 182.995 110.481 182.995 111.938 183.053C112.637 183.053 113.162 183.053 113.569 183.053C114.036 183.111 114.21 183.169 114.21 183.169Z" fill="#263238"/>
<path d="M66.953 183.169L42.9454 256.598H47.3157L75.4605 183.169H66.953Z" fill="#E0E0E0"/>
<path d="M66.9529 183.169C66.9529 183.169 67.1277 183.169 67.4774 183.169C67.827 183.169 68.4097 183.169 69.1089 183.169C70.5657 183.169 72.6635 183.169 75.4604 183.111H75.577L75.5187 183.227C70.7405 195.697 60.4266 222.783 48.4229 254.161C48.0732 255.031 47.7819 255.901 47.4323 256.713L47.374 256.829H47.2574C45.7424 256.829 44.2856 256.829 42.8871 256.829H42.6541L42.7123 256.655C49.4717 236.065 55.5319 217.679 59.8439 204.455C61.9999 197.843 63.748 192.565 64.9717 188.911C65.5544 187.113 66.0206 185.663 66.3702 184.735C66.545 184.271 66.6616 183.923 66.7198 183.633C66.8947 183.285 66.9529 183.169 66.9529 183.169C66.9529 183.169 66.8947 183.285 66.8364 183.575C66.7781 183.807 66.6616 184.213 66.4868 184.677C66.1954 185.663 65.7292 187.055 65.1465 188.911C63.9811 192.623 62.233 197.901 60.077 204.513C55.765 217.737 49.7631 236.065 43.062 256.655L42.9454 256.481C44.3439 256.481 45.8007 256.481 47.3157 256.481L47.1992 256.597C47.5488 255.727 47.8401 254.915 48.1898 254.045C60.2518 222.725 70.624 195.639 75.4604 183.169L75.5187 183.285C72.78 183.285 70.624 183.285 69.2255 183.227C68.5262 183.227 67.9435 183.227 67.5939 183.227C67.1277 183.169 66.9529 183.169 66.9529 183.169Z" fill="#263238"/>
<path d="M106.344 184.735C106.344 184.735 106.227 184.851 105.936 185.025C105.645 185.199 105.237 185.489 104.712 185.837C103.605 186.533 102.09 187.577 100.167 188.795C96.3214 191.289 91.0187 194.827 85.1917 198.713C79.3646 202.599 74.1203 206.137 70.2744 208.689C68.4097 209.965 66.8364 210.951 65.7293 211.705C65.2048 212.053 64.7969 212.343 64.5056 212.517C64.2142 212.691 64.0977 212.807 64.0394 212.807C64.0394 212.807 64.156 212.691 64.4473 212.517C64.7387 212.285 65.1466 211.995 65.671 211.647C66.7781 210.893 68.2932 209.849 70.1578 208.573C73.9454 205.963 79.1898 202.425 85.0169 198.539C90.8439 194.653 96.1466 191.173 100.051 188.737C101.974 187.519 103.547 186.533 104.654 185.837C105.179 185.489 105.586 185.257 105.936 185.083C106.227 184.851 106.344 184.735 106.344 184.735Z" fill="#263238"/>
<path d="M60.2518 104.81C60.2518 104.81 52.7349 105.564 51.6277 110.088C50.5206 114.612 46.9661 170.409 51.6277 178.297C56.2894 186.185 116.25 185.083 120.445 184.039C124.641 182.937 126.564 180.269 126.156 176.963C125.748 173.657 84.842 169.597 84.842 169.597L87.3477 111.364C87.4059 111.364 72.7217 103.998 60.2518 104.81Z" fill="#263238"/>
<path d="M126.214 178.413C126.214 178.413 126.156 178.413 126.039 178.413C125.923 178.413 125.748 178.413 125.515 178.413C125.049 178.413 124.35 178.471 123.475 178.471C121.669 178.529 119.105 178.529 115.9 178.529C109.49 178.529 100.692 178.297 90.9021 177.601C86.0074 177.253 81.404 176.789 77.2085 176.325C73.013 175.861 69.2255 175.339 66.0788 174.817C64.5055 174.585 63.0488 174.353 61.8251 174.121C60.5431 173.889 59.4942 173.715 58.6202 173.541C57.7461 173.367 57.1052 173.251 56.5807 173.135C56.3476 173.077 56.1728 173.077 56.0563 173.019C55.9397 173.019 55.8815 172.961 55.8815 172.961C55.8815 172.961 55.9397 172.961 56.0563 172.961C56.1728 172.961 56.3476 173.019 56.5807 173.019C57.0469 173.077 57.7461 173.193 58.6202 173.367C59.4942 173.541 60.6014 173.715 61.8251 173.889C63.107 174.063 64.5055 174.295 66.0788 174.527C69.2255 174.991 73.013 175.455 77.2085 175.977C81.404 176.441 86.0074 176.847 90.9021 177.253C100.633 177.949 109.432 178.181 115.842 178.239C119.047 178.297 121.611 178.297 123.417 178.297C124.291 178.297 124.99 178.297 125.457 178.297C125.69 178.297 125.865 178.297 125.981 178.297C126.156 178.355 126.214 178.413 126.214 178.413Z" fill="#455A64"/>
<path d="M117.415 213.619C117.357 213.677 107.859 207.065 96.2048 198.771C84.5507 190.477 75.1108 183.749 75.1691 183.691C75.2274 183.633 84.7255 190.245 96.3796 198.539C108.034 206.833 117.474 213.561 117.415 213.619Z" fill="#263238"/>
<path d="M65.6127 54.6979L60.8345 46.2878C62.9323 42.8658 64.2142 38.8058 64.2142 34.4557C64.2142 21.9856 54.0751 11.8936 41.5469 11.8936C29.0187 11.8936 18.8796 21.9856 18.8796 34.4557C18.8796 46.9258 29.0187 57.0179 41.5469 57.0179C46.7913 57.0179 51.5695 55.2779 55.4154 52.3199L65.6127 54.6979Z" fill="white"/>
<path d="M65.6127 54.6979C64.9717 54.5819 61.8251 53.8279 55.357 52.3778L55.2405 52.3198L55.2988 52.2038L55.4153 52.3198C52.8514 54.2919 49.1803 56.2639 44.5187 56.9019C43.3533 57.0759 42.1879 57.1339 40.9059 57.0759C40.2649 57.0179 39.6822 57.0179 39.0412 56.9599C38.4003 56.8439 37.7593 56.7859 37.1183 56.6699C34.5544 56.1479 31.9322 55.2199 29.4848 53.7118C27.0375 52.2038 24.7649 50.1738 22.9585 47.6218C21.1521 45.1278 19.7536 42.1118 19.1127 38.9217C18.4717 35.6737 18.53 32.2517 19.404 28.8877C20.2781 25.5236 21.8514 22.2756 24.2405 19.6076C26.6879 16.8816 29.6597 14.6775 32.9811 13.4015C36.3025 12.1255 39.7988 11.6035 43.1785 11.8355C46.5582 12.0675 49.763 13.0535 52.5018 14.5615C55.2405 16.0696 57.6296 18.1576 59.3777 20.4196C61.1841 22.6816 62.4661 25.2336 63.2236 27.7276C63.9811 30.2797 64.2142 32.7737 64.2142 35.0937C64.0976 39.7337 62.5243 43.6198 60.8345 46.2878V46.1718C63.8645 51.6238 65.263 54.1759 65.6127 54.6979C65.3213 54.1759 63.8063 51.6238 60.7179 46.2878V46.2298V46.1718C62.3495 43.5038 63.9228 39.6757 63.9811 35.0357C63.9811 32.7157 63.748 30.2797 62.9905 27.7856C62.1747 25.2916 60.951 22.7976 59.1446 20.5936C57.3382 18.3316 55.0657 16.3016 52.327 14.8515C49.5882 13.3435 46.4416 12.4155 43.1202 12.1835C39.7988 11.9515 36.3608 12.4155 33.0976 13.7495C29.8345 15.0255 26.8627 17.1716 24.4736 19.8396C22.0845 22.5076 20.5112 25.6976 19.6954 29.0037C18.8796 32.3097 18.8213 35.7317 19.404 38.9217C20.045 42.1118 21.3852 45.0698 23.1916 47.5058C24.998 49.9998 27.2123 52.0298 29.6014 53.4798C31.9905 54.9879 34.6127 55.9159 37.1183 56.4379C37.7593 56.5539 38.4003 56.6119 38.983 56.7279C39.6239 56.7859 40.2067 56.7859 40.8476 56.8439C42.0713 56.9019 43.2367 56.8439 44.4021 56.6699C49.0055 56.0899 52.6183 54.1759 55.1822 52.2038L55.7649 51.7978L55.357 52.3778V52.2038C61.8251 53.7699 64.9717 54.5819 65.6127 54.6979Z" fill="#263238"/>
<path d="M37.5845 31.4398H39.0412L42.1879 27.0897V24.2477C42.1879 24.2477 44.4021 24.1317 44.1691 27.8437C43.936 31.5558 44.1691 30.6278 44.1691 30.6278C44.1691 30.6278 48.889 30.6278 49.2386 31.0338C49.53 31.3238 49.6465 35.9638 49.7048 38.5158C49.7048 39.7918 48.9473 40.9518 47.7818 41.2418C47.607 41.2998 47.4322 41.2998 47.2574 41.2998C46.092 41.2998 40.0901 40.3718 40.0901 40.3718H37.6427V31.4398H37.5845Z" fill="#263238"/>
<path d="M33.5055 30.6858L34.3796 40.4299H36.8269V30.8598L33.5055 30.6858Z" fill="#263238"/>
<path d="M156.224 154.227C156.224 154.227 169.684 154.227 170.267 166.755C170.85 179.283 130.993 245.23 130.993 245.23L118.406 239.255L145.444 175.223L86.8234 169.481L88.5132 154.807L156.224 154.227Z" fill="#FFBE9D"/>
<path d="M133.673 241.402L133.265 242.272C133.265 242.272 145.619 254.916 144.511 257.816L114.735 244.476L119.572 234.79C123.126 238.85 127.671 241.17 133.673 241.402Z" fill="#455A64"/>
<g opacity="0.6">
<path d="M121.203 239.314C120.562 239.198 119.863 239.662 119.746 240.3C119.63 240.938 120.096 241.634 120.737 241.75C121.378 241.866 122.252 241.344 122.31 240.706C122.369 240.068 121.786 239.256 121.087 239.314" fill="white"/>
</g>
<g opacity="0.6">
<path d="M114.735 244.534L115.901 242.214L144.045 255.844C144.045 255.844 145.094 257.004 144.57 257.874L114.735 244.534Z" fill="white"/>
</g>
<path d="M133.382 242.388C133.323 242.504 132.566 242.272 131.634 242.388C130.701 242.504 130.06 242.968 129.944 242.852C129.827 242.736 130.41 241.982 131.575 241.866C132.682 241.75 133.44 242.272 133.382 242.388Z" fill="#263238"/>
<path d="M135.887 245.114C135.829 245.288 135.13 245.23 134.372 245.636C133.615 245.984 133.149 246.622 133.032 246.564C132.857 246.506 133.149 245.636 134.139 245.172C135.072 244.65 135.946 244.94 135.887 245.114Z" fill="#263238"/>
<path d="M136.004 249.638C135.829 249.638 136.004 248.768 136.703 248.188C137.402 247.55 138.276 247.55 138.276 247.724C138.276 247.898 137.694 248.13 137.053 248.652C136.47 249.058 136.179 249.638 136.004 249.638Z" fill="#263238"/>
<path d="M130.759 107.073L133.149 114.381L120.096 115.367L118.523 111.481L130.759 107.073Z" fill="#FFBE9D"/>
<path d="M167.82 116.643C168.053 117.165 168.694 117.223 169.218 117.513C170.209 117.977 170.675 119.137 170.675 120.181C170.675 121.225 170.209 122.269 169.626 123.197C169.393 123.545 169.218 123.893 168.868 124.125C168.519 124.357 168.053 124.415 167.761 124.125C167.353 123.777 167.412 123.197 167.528 122.733C167.761 120.819 167.353 118.441 167.82 116.643Z" fill="#FFBE9D"/>
<path d="M80.938 25.2337C80.7049 23.5517 81.8121 21.9857 83.5019 21.5797L97.8948 12.4736C103.372 11.2556 110.306 20.3617 111.297 25.8717C112.404 32.0198 112.637 39.5018 112.462 44.1999C112.055 53.6539 105.878 54.6399 105.878 54.6399L110.54 86.0182L88.1053 72.2141L80.938 25.2337Z" fill="#FFBE9D"/>
<path d="M108.325 33.7019C108.442 34.3399 107.976 34.9199 107.335 35.0359C106.694 35.1519 106.053 34.7459 105.994 34.1079C105.878 33.4699 106.344 32.8899 106.985 32.7739C107.626 32.6579 108.209 33.0639 108.325 33.7019Z" fill="#263238"/>
<path d="M110.19 30.28C110.073 30.396 109.141 30.396 107.917 30.86C106.694 31.324 105.936 31.962 105.761 31.904C105.703 31.904 105.761 31.672 106.111 31.382C106.461 31.092 107.043 30.686 107.801 30.454C108.558 30.164 109.258 30.106 109.666 30.106C110.073 30.164 110.248 30.222 110.19 30.28Z" fill="#263238"/>
<path d="M96.3797 34.282C96.4963 34.92 96.0301 35.5 95.3891 35.616C94.7482 35.732 94.1072 35.326 94.0489 34.688C93.9324 34.05 94.3985 33.47 95.0395 33.354C95.6805 33.238 96.3215 33.644 96.3797 34.282Z" fill="#263238"/>
<path d="M97.6617 32.7159C97.4869 32.7739 96.6128 32.2519 95.2143 32.0199C93.8158 31.7879 92.7087 32.0199 92.5921 31.9039C92.5339 31.8459 92.7087 31.7299 93.2331 31.6139C93.6993 31.4979 94.5151 31.4399 95.3309 31.5559C96.2049 31.6719 96.9042 31.9619 97.2538 32.1939C97.6034 32.5419 97.72 32.7159 97.6617 32.7159Z" fill="#263238"/>
<path d="M103.314 40.604C103.314 40.546 104.071 40.314 105.353 39.966C105.703 39.908 105.994 39.792 105.994 39.56C106.053 39.328 105.878 38.98 105.645 38.632C105.237 37.878 104.829 37.066 104.363 36.254C102.615 32.89 101.274 30.1059 101.449 29.9899C101.566 29.9319 103.139 32.6 104.887 35.964C105.295 36.776 105.703 37.588 106.111 38.342C106.286 38.69 106.519 39.096 106.402 39.618C106.344 39.85 106.111 40.082 105.936 40.14C105.761 40.256 105.528 40.256 105.412 40.256C104.13 40.604 103.314 40.72 103.314 40.604Z" fill="#263238"/>
<path d="M105.878 54.6401C105.878 54.6401 99.7012 55.8581 93.0583 52.842C93.0583 52.842 96.9042 59.3381 106.111 57.4241L105.878 54.6401Z" fill="#EB996E"/>
<path d="M103.489 43.7359C102.731 42.8658 101.682 42.3438 100.808 42.4018C100.226 42.4598 99.6429 42.7498 99.4681 43.3879C99.235 43.9679 99.4098 44.8959 99.9343 45.4759C100.517 46.1719 101.333 46.4039 101.974 46.1719C102.615 45.9979 103.023 45.4759 103.489 44.9539C103.605 44.8379 103.722 44.6639 103.78 44.4319C103.838 44.1999 103.78 43.9679 103.605 43.7939" fill="#EB996E"/>
<path d="M99.6429 41.938C99.876 41.88 99.9925 43.272 101.333 44.142C102.615 45.0121 104.13 44.6641 104.13 44.8381C104.188 44.8961 103.838 45.1281 103.197 45.2441C102.556 45.3601 101.682 45.2441 100.867 44.7221C100.051 44.2001 99.6429 43.446 99.5264 42.866C99.4681 42.286 99.5846 41.938 99.6429 41.938Z" fill="#263238"/>
<path d="M98.0697 27.0317C97.9531 27.3797 96.6712 27.2637 95.1561 27.4377C93.6411 27.6117 92.4174 28.0757 92.2426 27.7857C92.126 27.6117 92.3591 27.3217 92.8253 26.9737C93.2915 26.6257 94.1072 26.2777 94.9813 26.1617C95.9136 26.0457 96.7294 26.1617 97.2539 26.3937C97.8366 26.5677 98.1279 26.8577 98.0697 27.0317Z" fill="#263238"/>
<path d="M110.248 27.4379C110.015 27.7859 108.85 27.5539 107.568 27.7279C106.228 27.8439 105.12 28.1919 104.829 27.9019C104.712 27.7859 104.829 27.4379 105.295 27.1479C105.761 26.7999 106.519 26.5099 107.451 26.4519C108.384 26.3939 109.199 26.5679 109.665 26.7999C110.19 27.0319 110.365 27.2639 110.248 27.4379Z" fill="#263238"/>
<path d="M74.6448 49.304C74.8779 45.128 75.5771 31.6139 78.2576 24.3058C80.9963 16.9397 84.8422 13.6917 88.7463 12.1257C92.7087 10.5597 95.9136 11.7197 97.9531 13.1117C99.9925 14.5617 101.158 19.2598 101.158 19.2598C101.158 19.2598 91.6016 22.5658 88.9211 28.5398C85.8328 35.3839 85.3083 38.6899 85.3083 38.6899L84.4925 42.3439C84.4925 42.3439 86.2989 58.1781 87.1147 61.4841L74.1204 74.0122C74.5865 69.8941 74.4117 53.538 74.6448 49.304Z" fill="#263238"/>
<path d="M101.508 19.3178C101.508 19.3178 107.043 18.0998 109.84 24.1318C111.122 26.8578 112.346 35.2099 112.346 35.2099C112.346 35.2099 112.812 28.4238 112.113 24.7118C111.355 20.9998 108.966 16.4757 105.761 14.2137C102.673 12.0097 100.167 11.0817 95.2144 11.9517C95.2144 11.9517 97.6617 12.4737 99.1185 14.2137C99.876 15.0837 100.226 15.8377 101.508 19.3178Z" fill="#263238"/>
<path d="M85.4249 39.154C85.0753 37.124 82.6862 36.022 80.9964 37.24C80.064 37.936 79.4813 39.154 79.8309 41.3C80.7633 47.1001 86.3573 44.9541 86.3573 44.8381C86.3573 44.7221 85.8328 41.59 85.4249 39.154Z" fill="#FFBE9D"/>
<path d="M84.2595 42.9242C84.2595 42.9242 84.1429 42.9822 84.0264 43.0982C83.8516 43.2142 83.6185 43.2722 83.2689 43.2142C82.6279 43.0982 81.9287 42.1702 81.7539 41.1841C81.6373 40.6621 81.6956 40.1401 81.8121 39.6761C81.9287 39.2121 82.1617 38.8641 82.4531 38.8061C82.7444 38.6901 82.9775 38.8641 83.0941 38.9801C83.2106 39.1541 83.1523 39.2701 83.2106 39.2701C83.2106 39.2701 83.3272 39.1541 83.2106 38.9221C83.1523 38.8061 83.0941 38.6901 82.9193 38.5741C82.7445 38.4581 82.5696 38.4581 82.3366 38.5161C81.8704 38.6321 81.579 39.0961 81.4042 39.5601C81.2294 40.0241 81.1711 40.6621 81.2877 41.2421C81.5208 42.4022 82.2783 43.3882 83.1523 43.5042C83.5602 43.5622 83.9099 43.3882 84.0264 43.2142C84.2595 43.0402 84.2595 42.9242 84.2595 42.9242Z" fill="#EB996E"/>
<path d="M91.0771 11.4877C91.0771 11.5457 91.8929 11.4297 93.1749 11.4297C93.8159 11.4297 94.5734 11.5457 95.3892 11.8357C96.205 12.1257 96.9625 12.5897 97.72 13.2277C99.1768 14.5037 100.109 16.0698 100.575 17.2878C101.041 18.4478 101.158 19.2598 101.216 19.2598C101.216 19.2598 101.216 19.0858 101.158 18.6798C101.1 18.3318 100.925 17.8098 100.75 17.2298C100.284 16.0118 99.4099 14.3877 97.8948 13.1117C97.1373 12.4737 96.3215 11.9517 95.5057 11.6617C94.6899 11.3717 93.8741 11.3137 93.2332 11.3137C92.5922 11.3137 92.0677 11.3717 91.7181 11.4297C91.252 11.4297 91.0771 11.4877 91.0771 11.4877Z" fill="#455A64"/>
<path d="M80.5302 43.9679C80.5302 43.9679 80.5302 43.9099 80.5302 43.8519C80.5302 43.7939 80.4719 43.6779 80.4719 43.5619C80.4137 43.4459 80.4137 43.2719 80.3554 43.1559C80.2971 42.9819 80.2388 42.8079 80.1806 42.5759C79.9475 41.7059 79.7144 40.3719 79.7727 38.6899C79.8309 37.0659 80.1806 35.0939 81.1712 33.1219C82.1035 31.1498 83.7351 29.2938 85.7163 27.7278C86.7069 26.9738 87.7558 26.2778 88.8046 25.6398C89.8535 25.0018 90.8441 24.5378 91.8347 23.9578C93.7576 22.7978 95.331 21.5798 96.6129 20.5358C97.8949 19.4918 98.8855 18.5637 99.5264 17.8677C99.8761 17.5197 100.109 17.2877 100.284 17.1137C100.342 17.0557 100.4 16.9397 100.459 16.8817C100.517 16.8237 100.517 16.8237 100.517 16.8237C100.517 16.8237 100.517 16.8237 100.459 16.8817C100.4 16.9397 100.342 16.9977 100.226 17.0557C100.051 17.2297 99.7595 17.4617 99.4682 17.8097C98.7689 18.4477 97.7783 19.3178 96.4964 20.4198C95.2144 21.4638 93.6411 22.6818 91.7182 23.7838C90.7858 24.3638 89.737 24.8278 88.6881 25.4658C87.6392 26.1038 86.5903 26.7418 85.5997 27.5538C83.5603 29.1198 81.9287 30.9758 80.9964 33.0059C80.0058 34.9779 79.6561 37.0079 79.5979 38.6899C79.5396 40.3719 79.8309 41.7059 80.064 42.5759C80.1223 42.8079 80.1806 42.9819 80.2388 43.1559C80.2971 43.3299 80.3554 43.4459 80.4137 43.5619C80.4719 43.6779 80.4719 43.7359 80.5302 43.7939C80.5302 43.9679 80.5302 43.9679 80.5302 43.9679Z" fill="#455A64"/>
<path d="M78.9568 41.9379C78.9568 41.9379 78.9568 41.8799 78.9568 41.8219C78.9568 41.7639 78.9568 41.6479 78.8985 41.5319C78.8985 41.2999 78.782 40.9519 78.782 40.4879C78.6654 39.5599 78.6072 38.2259 78.7237 36.5439C78.8402 34.8619 79.1899 32.9479 79.8891 30.8599C80.6466 28.7718 81.6955 26.6258 83.3271 24.5958C84.9004 22.6238 86.765 20.9998 88.5714 19.7238C90.3778 18.4478 92.0677 17.4037 93.4662 16.4757C94.8647 15.6057 96.0301 14.8517 96.7876 14.3297C97.1955 14.0977 97.4869 13.8657 97.6617 13.6917C97.7782 13.6337 97.8365 13.5757 97.8947 13.5177C97.953 13.4597 97.953 13.4597 97.953 13.4597C97.953 13.4597 97.8947 13.4597 97.8947 13.5177C97.8365 13.5757 97.7782 13.6337 97.6617 13.6917C97.4286 13.8077 97.1372 14.0397 96.7293 14.2717C95.9718 14.7937 94.8064 15.4897 93.3496 16.3597C91.9511 17.2297 90.203 18.2738 88.3966 19.5498C86.5902 20.8258 84.7256 22.4498 83.1523 24.4218C81.579 26.4518 80.4718 28.6558 79.7143 30.7439C79.015 32.8319 78.6654 34.8039 78.5489 36.4859C78.4323 38.1679 78.5489 39.5019 78.6654 40.4299C78.7237 40.8939 78.782 41.2419 78.8402 41.4739C78.8402 41.5899 78.8985 41.6479 78.8985 41.7639C78.8985 41.9379 78.9568 41.9379 78.9568 41.9379Z" fill="#455A64"/>
<path d="M110.073 64.2681C110.073 64.2681 117.59 67.2841 119.047 71.2281C120.504 75.1142 131.4 107.246 131.4 107.246L118.697 112.06L112.929 85.6122L110.073 64.2681Z" fill="#FF725E"/>
<path d="M71.2069 155.561C71.2069 155.561 148.707 152.023 153.602 153.299C158.438 154.575 161.352 157.011 162.342 162.811C163.333 168.611 178.25 245.519 178.25 245.519L164.673 249.522C164.673 249.522 145.619 206.195 144.803 198.945C143.987 191.695 141.307 176.847 141.307 176.847C141.307 176.847 111.822 177.311 90.1449 176.847C68.4682 176.383 71.3817 156.373 71.3817 156.373L71.2069 155.561Z" fill="#FFBE9D"/>
<path d="M164.498 249.869L164.382 249.637C163.624 247.839 145.269 206.195 144.511 199.003C143.754 192.333 141.423 179.109 141.073 177.137C138.16 177.195 110.54 177.601 90.1448 177.137C83.3855 176.963 78.3159 174.933 75.0527 171.105C70.0997 165.247 70.9738 157.069 71.0903 156.373L70.9155 155.271H71.2652C74.4118 155.155 148.882 151.733 153.718 153.009C159.137 154.459 161.76 157.243 162.692 162.753C163.624 168.495 178.425 244.707 178.6 245.461L178.658 245.693L164.498 249.869ZM141.54 176.499L141.598 176.731C141.598 176.905 144.278 191.695 145.094 198.887C145.852 205.731 163.333 245.693 164.848 249.173L177.959 245.345C177.026 240.415 163.041 168.437 162.109 162.869C161.235 157.649 158.788 154.923 153.602 153.589C148.998 152.371 77.1505 155.619 71.673 155.851L71.7313 156.373V156.431C71.7313 156.489 70.5659 164.841 75.5772 170.757C78.7238 174.469 83.6768 176.441 90.2614 176.615C111.705 177.079 141.132 176.615 141.423 176.615L141.54 176.499Z" fill="#EB996E"/>
<path d="M76.4512 113.917L78.4324 125.923C78.4324 125.923 69.9248 141.931 68.9925 155.677C68.5263 162.231 72.3139 175.571 72.3139 175.571C72.3139 175.571 102.149 178.819 118.29 178.413L135.479 177.659L138.509 150.921L119.222 148.137L119.513 111.712C119.513 111.712 123.009 102.142 123.301 99.3004C123.942 93.3263 123.65 87.2363 117.649 79.5222L110.132 64.2101L107.626 63.0501L108.85 81.5523L87.1147 61.1941L76.1598 65.1381L73.0715 79.6962L76.4512 113.917Z" fill="#FF725E"/>
<g opacity="0.3">
<path d="M113.978 152.661C112.579 152.893 102.44 153.067 101.041 153.299C100.575 153.357 99.9926 153.473 99.5847 153.125C99.2351 152.835 99.1185 152.255 99.2933 151.791C99.4681 151.327 99.8178 150.979 100.167 150.631C102.615 148.311 105.82 146.977 108.908 145.643C109.899 145.237 110.947 144.831 111.996 145.063C113.045 145.353 113.803 146.281 114.152 147.267C114.502 148.253 114.502 149.355 114.502 150.399" fill="black"/>
</g>
<g opacity="0.3">
<path d="M77.2671 122.327C80.8798 121.515 83.1524 117.919 84.6092 114.555C86.0659 111.133 87.2896 107.421 90.1449 105.043C92.2426 103.303 95.0979 102.549 96.9043 100.519C98.6524 98.5465 99.1768 95.5885 98.128 93.2104C97.6035 91.9924 96.5547 90.7744 95.2144 90.7164C93.6411 90.6584 92.4174 91.9924 91.4851 93.2685C87.0565 99.0105 82.9193 104.927 79.0152 111.017C76.9174 114.265 74.8197 118.267 76.2765 121.863" fill="black"/>
</g>
<path d="M77.2671 66.9941C77.2671 66.9941 71.1486 68.9082 68.9344 72.7362C66.7201 76.5642 63.049 95.1244 62.175 100.112C61.3009 105.1 56.9889 125.691 62.175 128.939C67.361 132.187 74.1204 127.199 75.9268 124.241C77.675 121.283 84.9588 105.854 84.9588 105.854L78.4907 100.402C78.4907 100.402 79.6562 85.7283 79.2483 82.5963C78.7238 79.5802 77.2671 66.9941 77.2671 66.9941Z" fill="#FFBE9D"/>
<path d="M58.0959 105.159L72.314 106.087L78.782 98.4885L80.5884 86.5404L80.1223 63.6882C80.1223 63.6882 67.4193 66.7623 64.6805 76.3903C62.6411 83.4664 58.0959 105.159 58.0959 105.159Z" fill="#FF725E"/>
<path d="M83.2106 78.1302C82.3948 78.0142 81.346 79.0002 82.0452 81.2623C82.6279 83.1763 83.7351 85.0323 83.6185 86.1343C83.5603 87.2363 83.0941 89.4403 83.0941 90.6003C83.0941 91.7603 82.7445 93.9644 82.7445 93.9644L73.0715 105.622L81.4625 112.989L88.0471 102.606C88.0471 102.606 90.0283 102.954 91.1937 101.62C92.3591 100.286 92.9418 99.6484 92.9418 99.6484C92.9418 99.6484 97.4287 97.9664 96.4963 95.5884C96.4963 95.5884 97.8366 94.3124 96.6129 92.3403C96.6129 92.3403 97.2539 90.2523 96.3215 88.9763C96.3215 88.9763 96.2633 86.1923 95.5057 85.6703C94.7482 85.1483 86.9982 85.0903 86.9982 85.0903C86.9982 85.0903 85.9494 82.0163 85.5415 81.3203C84.7839 79.8702 84.376 78.3042 83.2106 78.1302Z" fill="#FFBE9D"/>
<path d="M86.5321 89.5563C86.5321 89.5563 86.3573 89.4983 86.1242 89.2083C85.9494 88.9183 85.7746 88.5123 85.8328 87.9903C85.8911 87.4683 86.1242 87.0623 86.3573 86.8303C86.5904 86.5983 86.7652 86.5403 86.8234 86.5403C86.8817 86.5983 86.2407 87.0623 86.1242 87.9903C86.0659 88.8603 86.5904 89.4983 86.5321 89.5563Z" fill="#EB996E"/>
<path d="M96.1467 88.7442C96.1467 88.8022 94.5734 89.1502 92.534 89.3822C90.5528 89.6142 88.8629 89.6142 88.8629 89.4982C88.8629 89.4402 90.4945 89.2662 92.4757 89.0922C94.5152 88.8602 96.0885 88.6282 96.1467 88.7442Z" fill="#EB996E"/>
<path d="M96.7877 92.0503C96.7877 92.1083 95.4475 92.5143 93.7577 92.7463C92.0678 92.9783 90.6693 92.9203 90.6693 92.8623C90.6693 92.7463 92.0678 92.6883 93.7577 92.4563C95.4475 92.2243 96.7877 91.9923 96.7877 92.0503Z" fill="#EB996E"/>
<path d="M96.6711 95.4723C96.6711 95.5303 95.6805 95.8203 94.3403 95.9363C93.0583 96.0523 91.9512 95.9943 91.9512 95.9363C91.9512 95.8783 93 95.7623 94.282 95.6463C95.564 95.5303 96.6128 95.3563 96.6711 95.4723Z" fill="#EB996E"/>
<path d="M89.3291 96.5164C89.3291 96.5744 89.1543 96.5164 88.9794 96.4004C88.8046 96.2844 88.5716 95.9944 88.455 95.6464C88.3385 95.2984 88.455 94.9504 88.5716 94.7764C88.6881 94.5444 88.8046 94.4864 88.8629 94.5444C88.9212 94.6024 88.6298 95.0664 88.7464 95.6464C88.8629 96.1684 89.3291 96.4584 89.3291 96.5164Z" fill="#EB996E"/>
<path d="M87.4061 93.7323C87.4061 93.7323 87.2313 93.6743 87.0565 93.3843C86.8816 93.1523 86.7068 92.7463 86.6486 92.2823C86.6486 91.8183 86.7651 91.4123 86.8816 91.1223C87.0565 90.8323 87.173 90.7163 87.2313 90.7743C87.2895 90.8323 86.8816 91.4123 86.9399 92.2823C86.9982 93.1523 87.4644 93.6743 87.4061 93.7323Z" fill="#EB996E"/>
<path d="M94.2821 99.1265C94.2821 99.1845 93.6993 99.3585 92.9418 99.5325C92.1843 99.6485 91.5433 99.7065 91.5433 99.6485C91.5433 99.5905 92.126 99.4165 92.8836 99.2425C93.6411 99.0685 94.2821 99.0685 94.2821 99.1265Z" fill="#EB996E"/>
<path d="M90.4945 85.0903C90.4945 85.2063 89.3291 85.2063 87.8723 85.3223C86.4155 85.4383 85.2501 85.6703 85.2501 85.6123C85.2501 85.5543 86.3573 85.1483 87.8723 85.0323C89.3291 84.9163 90.4945 85.0323 90.4945 85.0903Z" fill="#EB996E"/>
<path d="M167.47 150.167H112.87V116.179C112.87 114.439 114.327 112.989 116.075 112.989H164.265C166.013 112.989 167.47 114.439 167.47 116.179V150.167Z" fill="#E0E0E0"/>
<path d="M167.47 152.661H103.372C103.372 151.327 104.479 150.225 105.82 150.225H167.412V152.661H167.47Z" fill="#E0E0E0"/>
<path d="M165.431 115.367H114.56V150.167H165.431V115.367Z" fill="white"/>
<path d="M165.431 150.167C165.431 150.167 165.431 149.935 165.431 149.529C165.431 149.123 165.431 148.485 165.431 147.673C165.431 146.049 165.431 143.671 165.372 140.655C165.372 134.623 165.314 125.923 165.314 115.367L165.431 115.483C151.329 115.483 133.673 115.483 114.56 115.541L114.735 115.367C114.735 127.779 114.735 139.611 114.735 150.167L114.619 150.051C129.594 150.051 142.297 150.109 151.271 150.109C155.758 150.109 159.312 150.109 161.76 150.167C162.983 150.167 163.916 150.167 164.557 150.167C164.848 150.167 165.081 150.167 165.256 150.167C165.372 150.167 165.431 150.167 165.431 150.167C165.431 150.167 165.372 150.167 165.197 150.167C165.023 150.167 164.79 150.167 164.498 150.167C163.857 150.167 162.925 150.167 161.76 150.167C159.312 150.167 155.816 150.167 151.329 150.225C142.355 150.225 129.594 150.283 114.56 150.283H114.444V150.167C114.444 139.611 114.444 127.779 114.444 115.367V115.193H114.619C133.731 115.193 151.387 115.193 165.489 115.251H165.605V115.367C165.605 125.981 165.547 134.681 165.547 140.771C165.547 143.787 165.547 146.165 165.489 147.731C165.489 148.543 165.489 149.123 165.489 149.529C165.431 149.993 165.431 150.167 165.431 150.167Z" fill="#263238"/>
<path d="M167.179 150.167C167.179 150.225 153.427 150.341 136.47 150.341C119.513 150.341 105.761 150.283 105.761 150.167C105.761 150.109 119.513 149.993 136.47 149.993C153.427 150.051 167.179 150.109 167.179 150.167Z" fill="#263238"/>
<path d="M140.025 146.049C147.394 146.049 153.369 140.102 153.369 132.767C153.369 125.431 147.394 119.485 140.025 119.485C132.655 119.485 126.681 125.431 126.681 132.767C126.681 140.102 132.655 146.049 140.025 146.049Z" fill="#263238"/>
<path d="M131.692 133.115L134.547 130.447L138.451 134.043L146.143 126.793L148.94 129.461L138.393 139.379L131.692 133.115Z" fill="white"/>
<path d="M82.8027 94.0223C82.8609 94.0803 78.8403 98.8943 73.829 104.81C68.8177 110.726 64.6805 115.424 64.6222 115.366C64.5639 115.308 68.5846 110.494 73.5959 104.578C78.6654 98.6623 82.7444 93.9643 82.8027 94.0223Z" fill="#EB996E"/>
<path d="M82.1035 86.5403C82.1618 86.5403 81.8704 88.8023 81.4042 91.5283C80.9381 94.2543 80.4719 96.5164 80.4136 96.5164C80.3554 96.5164 80.6467 94.2543 81.1129 91.5283C81.5791 88.7443 82.0452 86.5403 82.1035 86.5403Z" fill="#263238"/>
<path d="M119.455 111.771C119.455 111.771 119.455 111.655 119.572 111.423C119.63 111.191 119.746 110.843 119.863 110.437C120.154 109.567 120.562 108.349 121.028 106.841C121.494 105.333 122.019 103.535 122.427 101.447C122.835 99.4165 123.126 97.0965 123.068 94.7185C122.893 89.9044 121.203 85.7284 119.688 82.9444C118.931 81.5524 118.231 80.5084 117.707 79.7543C117.474 79.4063 117.241 79.1163 117.124 78.9423C117.008 78.7683 116.949 78.6523 116.949 78.6523C116.949 78.6523 117.066 78.7103 117.182 78.9423C117.357 79.1163 117.532 79.4063 117.823 79.7543C118.348 80.4504 119.105 81.5524 119.921 82.8864C120.737 84.2784 121.553 86.0184 122.194 87.9904C122.835 90.0204 123.359 92.2824 123.417 94.7185C123.476 97.1545 123.184 99.4745 122.776 101.563C122.369 103.651 121.786 105.449 121.32 106.957C120.795 108.465 120.387 109.683 120.038 110.495C119.863 110.901 119.746 111.191 119.688 111.423C119.513 111.713 119.455 111.771 119.455 111.771Z" fill="#263238"/>
<path d="M107.102 93.7324C107.102 93.7324 107.102 94.0224 107.102 94.5444C107.102 94.8344 107.102 95.1244 107.043 95.4724C106.985 95.8204 106.985 96.2844 106.868 96.7484C106.752 97.2124 106.694 97.7344 106.519 98.2565C106.402 98.7785 106.169 99.3585 105.936 99.9385C105.47 101.098 104.771 102.258 103.955 103.476C103.081 104.636 102.149 105.623 101.216 106.435C100.75 106.841 100.284 107.189 99.8177 107.479C99.3516 107.827 98.9437 108.059 98.5358 108.291C98.1279 108.523 97.72 108.697 97.3704 108.871C97.0207 109.045 96.7294 109.161 96.4963 109.219C95.9719 109.393 95.7388 109.451 95.7388 109.451C95.7388 109.393 96.8459 109.045 98.4192 108.117C98.8271 107.885 99.235 107.595 99.7012 107.305C100.167 107.015 100.575 106.609 101.1 106.261C102.032 105.449 102.964 104.462 103.78 103.36C104.596 102.2 105.237 101.04 105.761 99.9385C105.994 99.3585 106.227 98.8365 106.344 98.3145C106.519 97.7924 106.635 97.3284 106.752 96.8644C107.043 94.8924 107.043 93.7324 107.102 93.7324Z" fill="#263238"/>
<path d="M123.068 99.0104C123.068 99.0104 123.01 98.9524 123.01 98.8944C122.951 98.7784 122.893 98.7204 122.776 98.5464C122.602 98.2564 122.31 97.7924 122.019 97.2704C121.611 96.7484 121.145 96.0524 120.62 95.2984C120.038 94.5444 119.397 93.7324 118.639 92.8044C115.667 89.1503 111.239 84.3943 106.169 79.2903C101.1 74.1862 96.3216 69.7202 92.8253 66.5302C91.9513 65.7182 91.1355 65.0222 90.4362 64.3842C89.737 63.7461 89.1543 63.2241 88.6298 62.8181C88.1637 62.4121 87.7558 62.0641 87.4644 61.8321C87.3479 61.7161 87.2313 61.6581 87.1731 61.6001C87.1148 61.5421 87.0565 61.4841 87.0565 61.4841C87.0565 61.4841 87.1148 61.4841 87.1731 61.5421C87.2313 61.6001 87.3479 61.6581 87.4644 61.7741C87.7558 62.0061 88.1637 62.2961 88.6881 62.7021C89.2125 63.1081 89.7952 63.6301 90.5528 64.2682C91.252 64.9062 92.0678 65.6022 92.9419 66.3562C96.4964 69.4882 101.275 73.9542 106.344 79.0583C111.414 84.1623 115.842 88.9763 118.756 92.6884C119.455 93.6164 120.154 94.4864 120.679 95.2404C121.203 95.9944 121.669 96.6904 122.019 97.2124C122.31 97.7924 122.602 98.1984 122.776 98.5464C122.835 98.6624 122.893 98.7784 122.951 98.8944C123.068 98.9524 123.126 99.0104 123.068 99.0104Z" fill="#263238"/>
<path d="M111.763 125.865C111.763 125.865 111.647 125.923 111.414 125.923C111.181 125.981 110.831 125.981 110.481 126.039C109.665 126.155 108.442 126.271 106.985 126.387C104.013 126.677 99.876 126.851 95.3309 126.793C90.7858 126.735 86.6486 126.387 83.6768 126.097C82.22 125.923 80.9963 125.749 80.1805 125.633C79.7726 125.575 79.4813 125.517 79.2482 125.459C79.0151 125.401 78.8986 125.401 78.8986 125.401C78.8986 125.401 79.0151 125.401 79.2482 125.401C79.4813 125.401 79.8309 125.459 80.1805 125.517C80.9963 125.633 82.22 125.749 83.6768 125.865C86.6486 126.155 90.7858 126.445 95.3309 126.503C99.876 126.561 104.013 126.387 106.985 126.155C108.5 126.039 109.665 125.981 110.481 125.865C110.889 125.807 111.181 125.807 111.414 125.807C111.647 125.807 111.763 125.807 111.763 125.865Z" fill="#FF725E"/>
<path d="M136.995 112.931C136.995 112.931 146.551 109.219 147.425 108.928C148.357 108.638 156.69 108 156.69 108L167.47 111.829C167.47 111.829 167.587 114.033 165.081 113.743C162.575 113.453 158.555 112.119 158.555 112.119L157.04 113.047L136.995 112.931Z" fill="#FFBE9D"/>
<path d="M166.946 114.381C167.179 114.903 167.82 114.961 168.344 115.251C169.335 115.715 169.801 116.875 169.801 117.919C169.801 118.963 169.335 120.007 168.752 120.935C168.519 121.283 168.344 121.631 167.994 121.863C167.645 122.095 167.179 122.153 166.887 121.863C166.479 121.515 166.538 120.935 166.654 120.471C166.887 118.499 166.538 116.179 166.946 114.381Z" fill="#FFBE9D"/>
<path d="M177.784 242.677L178.134 243.606C178.134 243.606 195.848 244.302 197.071 247.144L166.246 257.932L163.041 247.608C168.344 248.072 173.239 246.622 177.784 242.677Z" fill="#455A64"/>
<g opacity="0.6">
<path d="M167.295 249.696C166.771 250.044 166.596 250.856 166.946 251.436C167.295 252.016 168.111 252.19 168.694 251.784C169.218 251.436 169.509 250.45 169.043 249.928C168.635 249.406 167.645 249.232 167.179 249.754" fill="white"/>
</g>
<g opacity="0.6">
<path d="M166.188 257.873L165.43 255.379L195.265 245.983C195.265 245.983 196.838 246.099 197.013 247.085L166.188 257.873Z" fill="white"/>
</g>
<path d="M178.25 243.605C178.308 243.779 177.551 244.069 177.026 244.823C176.444 245.577 176.269 246.331 176.152 246.331C175.977 246.331 175.919 245.403 176.618 244.475C177.259 243.605 178.192 243.489 178.25 243.605Z" fill="#263238"/>
<path d="M181.921 243.837C181.979 243.953 181.455 244.475 181.164 245.288C180.872 246.1 180.989 246.796 180.814 246.854C180.697 246.912 180.29 246.1 180.639 245.056C180.989 244.069 181.863 243.663 181.921 243.837Z" fill="#263238"/>
<path d="M185.126 247.028C185.009 247.086 184.543 246.448 184.602 245.462C184.718 244.534 185.301 243.954 185.417 244.012C185.534 244.128 185.243 244.708 185.184 245.462C185.068 246.332 185.243 246.97 185.126 247.028Z" fill="#263238"/>
</svg>
