<svg width="24" height="25" viewBox="0 0 24 25" fill="none" xmlns="http://www.w3.org/2000/svg">
<path fill-rule="evenodd" clip-rule="evenodd" d="M15.9202 13.6723C15.9725 13.4142 16 13.1471 16 12.8735C16 10.6644 14.2091 8.87354 12 8.87354C11.7264 8.87354 11.4593 8.901 11.2012 8.95331L15.9202 13.6723ZM8.66676 10.6615C8.24547 11.2951 8 12.0556 8 12.8735C8 15.0827 9.79086 16.8735 12 16.8735C12.8179 16.8735 13.5784 16.6281 14.212 16.2068L12.7381 14.7329C12.5098 14.8237 12.2607 14.8735 12 14.8735C10.8954 14.8735 10 13.9781 10 12.8735C10 12.6128 10.0499 12.3638 10.1406 12.1354L8.66676 10.6615Z" fill="#C0C0C0"/>
<path fill-rule="evenodd" clip-rule="evenodd" d="M16.5191 18.514L15.0499 17.0447C14.0776 17.554 13.0477 17.8735 12 17.8735C10.4742 17.8735 8.98616 17.1959 7.65914 16.2412C6.34002 15.2922 5.26409 14.1294 4.58386 13.3035C4.48409 13.1824 4.40958 13.0917 4.34785 13.012C4.29899 12.9489 4.26786 12.905 4.24756 12.8735C4.26786 12.8421 4.29899 12.7981 4.34785 12.735C4.40958 12.6553 4.48409 12.5647 4.58386 12.4436C5.24928 11.6357 6.29335 10.5054 7.57331 9.56817L6.14458 8.13944C4.79643 9.1697 3.72247 10.3436 3.04009 11.1721C3.01651 11.2007 2.99192 11.2301 2.96662 11.2605L2.96661 11.2605C2.65318 11.6359 2.22974 12.1431 2.22974 12.8735C2.22974 13.604 2.65318 14.1112 2.9666 14.4866L2.96682 14.4869C2.99205 14.5171 3.01657 14.5464 3.04009 14.575C3.77996 15.4733 4.98018 16.7776 6.49111 17.8647C7.99416 18.9461 9.89008 19.8735 12 19.8735C13.67 19.8735 15.206 19.2925 16.5191 18.514ZM8.80682 6.55904C9.79062 6.14225 10.8643 5.87354 12 5.87354C14.1099 5.87354 16.0059 6.80101 17.5089 7.88238C19.0198 8.96944 20.2201 10.2738 20.9599 11.1721C20.9835 11.2007 21.0081 11.2301 21.0334 11.2604L21.0334 11.2605C21.3468 11.6359 21.7703 12.1431 21.7703 12.8735C21.7703 13.604 21.3468 14.1112 21.0334 14.4866C21.0081 14.5169 20.9835 14.5464 20.9599 14.575C20.4733 15.1659 19.7874 15.9324 18.945 16.6972L17.529 15.2812C18.3089 14.5816 18.9539 13.8647 19.4162 13.3035C19.5159 13.1824 19.5904 13.0917 19.6522 13.012C19.701 12.9489 19.7322 12.905 19.7525 12.8735C19.7322 12.8421 19.701 12.7981 19.6522 12.735C19.5904 12.6553 19.5159 12.5647 19.4162 12.4436C18.7359 11.6177 17.66 10.4549 16.3409 9.50587C15.0139 8.55113 13.5258 7.87354 12 7.87354C11.449 7.87354 10.9029 7.9619 10.3676 8.11978L8.80682 6.55904Z" fill="#C0C0C0"/>
<path d="M5 2.87354L21 18.8735" stroke="#C0C0C0" stroke-width="2"/>
</svg>
