<svg width="396" height="289" viewBox="0 0 396 289" fill="none" xmlns="http://www.w3.org/2000/svg">
<g clip-path="url(#clip0_447_3545)">
<path d="M396 259.844H0V260.002H396V259.844Z" fill="#E6E6E6"/>
<path d="M98.8415 271.867H72.6263V272.025H98.8415V271.867Z" fill="#E6E6E6"/>
<path d="M64.3104 271.867H49.104V272.025H64.3104V271.867Z" fill="#E6E6E6"/>
<path d="M166.795 274.794H151.589V274.952H166.795V274.794Z" fill="#E6E6E6"/>
<path d="M245.995 279.144H211.781V279.302H245.995V279.144Z" fill="#E6E6E6"/>
<path d="M204.732 279.144H199.742V279.302H204.732V279.144Z" fill="#E6E6E6"/>
<path d="M359.093 274.794H284.882V274.952H359.093V274.794Z" fill="#E6E6E6"/>
<path d="M187.704 224.566H34.7688C32.3136 224.566 30.2544 222.509 30.2544 220.057V5.38219C30.2544 2.93011 32.3136 0.873535 34.7688 0.873535H187.704C190.159 0.873535 192.218 2.93011 192.218 5.38219V220.057C192.218 222.588 190.238 224.566 187.704 224.566ZM34.7688 1.03173C32.3928 1.03173 30.4128 2.93011 30.4128 5.38219V220.057C30.4128 222.43 32.3136 224.408 34.7688 224.408H187.704C190.08 224.408 192.06 222.509 192.06 220.057V5.38219C192.06 3.00921 190.159 1.03173 187.704 1.03173H34.7688Z" fill="#E6E6E6"/>
<path d="M359.014 224.566H206.078C203.623 224.566 201.564 222.509 201.564 220.057V5.38219C201.564 2.93011 203.623 0.873535 206.078 0.873535H359.014C361.469 0.873535 363.528 2.93011 363.528 5.38219V220.057C363.528 222.588 361.548 224.566 359.014 224.566ZM206.078 1.03173C203.702 1.03173 201.722 2.93011 201.722 5.38219V220.057C201.722 222.43 203.623 224.408 206.078 224.408H359.014C361.39 224.408 363.37 222.509 363.37 220.057V5.38219C363.37 3.00921 361.469 1.03173 359.014 1.03173H206.078Z" fill="#E6E6E6"/>
<path d="M211.781 192.293H194.357V261.268H211.781V192.293Z" fill="#E0E0E0"/>
<path d="M208.454 261.347H211.781V251.934H204.969L208.454 261.347Z" fill="#FAFAFA"/>
<path d="M135.511 192.293H118.087V261.268H135.511V192.293Z" fill="#E0E0E0"/>
<path d="M211.781 192.293H132.581V255.494H211.781V192.293Z" fill="#FAFAFA"/>
<path d="M208.93 195.458V212.227H135.432V195.458H208.93ZM209.246 195.141H135.194V212.464H209.246V195.141Z" fill="#E0E0E0"/>
<path d="M135.907 261.347H132.581V251.934H139.392L135.907 261.347Z" fill="#FAFAFA"/>
<path d="M170.438 203.763C170.438 204.712 171.23 205.503 172.181 205.503C173.131 205.503 173.923 204.712 173.923 203.763C173.923 202.814 173.131 202.023 172.181 202.023C171.23 202.023 170.438 202.814 170.438 203.763Z" fill="#E6E6E6"/>
<path d="M208.93 215.549V232.318H135.432V215.549H208.93ZM209.246 215.232H135.194V232.634H209.246V215.232Z" fill="#E0E0E0"/>
<path d="M170.438 223.933C170.438 224.882 171.23 225.673 172.181 225.673C173.131 225.673 173.923 224.882 173.923 223.933C173.923 222.984 173.131 222.193 172.181 222.193C171.23 222.193 170.438 222.984 170.438 223.933Z" fill="#E6E6E6"/>
<path d="M208.93 235.719V252.409H135.432V235.64H208.93M209.246 235.403H135.194V252.725H209.246V235.403Z" fill="#E0E0E0"/>
<path d="M170.438 244.103C170.438 245.053 171.23 245.844 172.181 245.844C173.131 245.844 173.923 245.053 173.923 244.103C173.923 243.154 173.131 242.363 172.181 242.363C171.23 242.363 170.438 243.075 170.438 244.103Z" fill="#E6E6E6"/>
<path d="M124.819 152.269H107.395V261.347H124.819V152.269Z" fill="#E0E0E0"/>
<path d="M121.493 261.347H124.819V251.934H118.087L121.493 261.347Z" fill="#FAFAFA"/>
<path d="M59.7168 152.269H42.2928V261.347H59.7168V152.269Z" fill="#E0E0E0"/>
<path d="M124.819 152.269H56.8656V255.573H124.819V152.269Z" fill="#FAFAFA"/>
<path d="M121.889 155.196V178.609H59.796V155.196H121.889ZM122.285 154.801H59.4V178.926H122.206V154.801H122.285Z" fill="#E0E0E0"/>
<path d="M121.889 181.378V243.391H92.2681V181.378H121.889ZM122.285 181.061H91.9513V243.787H122.285V181.061Z" fill="#E0E0E0"/>
<path d="M89.3376 181.378V243.391H59.796V181.378H89.3376ZM89.7336 181.061H59.4V243.787H89.7336V181.061Z" fill="#E0E0E0"/>
<path d="M60.192 261.347H56.8656V251.934H63.5976L60.192 261.347Z" fill="#FAFAFA"/>
<path d="M89.1001 166.823C89.1001 167.773 89.8921 168.564 90.8425 168.564C91.7929 168.564 92.5849 167.773 92.5849 166.823C92.5849 165.874 91.7929 165.083 90.8425 165.083C89.8921 165.083 89.1001 165.874 89.1001 166.823Z" fill="#E6E6E6"/>
<path d="M95.3568 210.961C95.3568 211.91 96.1488 212.701 97.0992 212.701C98.0496 212.701 98.8416 211.91 98.8416 210.961C98.8416 210.012 98.0496 209.221 97.0992 209.221C96.1488 209.221 95.3568 210.012 95.3568 210.961Z" fill="#E6E6E6"/>
<path d="M82.8433 210.961C82.8433 211.91 83.6353 212.701 84.5857 212.701C85.5361 212.701 86.3281 211.91 86.3281 210.961C86.3281 210.012 85.5361 209.221 84.5857 209.221C83.6353 209.221 82.8433 210.012 82.8433 210.961Z" fill="#E6E6E6"/>
<path d="M80.8632 121.816H73.4976C73.4976 121.816 74.7648 128.619 74.7648 132.574C74.7648 136.529 69.1416 152.19 77.1408 152.19C85.14 152.19 79.5168 136.529 79.5168 132.574C79.596 128.619 80.8632 121.816 80.8632 121.816Z" fill="#E0E0E0"/>
<path d="M52.9056 137.873V142.619C52.9056 147.919 57.2616 152.19 62.4888 152.19H67.2408C72.5472 152.19 76.824 147.84 76.824 142.619V137.873H52.9056Z" fill="#F5F5F5"/>
<path d="M154.994 182.248C154.994 187.785 161.172 192.293 168.775 192.293H175.586C183.19 192.293 189.367 187.785 189.367 182.248H154.994Z" fill="#E0E0E0"/>
<path d="M336.283 174.18C332.165 177.581 326.383 183.751 321.156 192.452C317.671 198.226 315.533 204.317 314.662 212.385C314.662 203.288 314.741 193.48 314.741 184.305C315.77 181.932 318.226 176.474 319.968 172.123C325.75 157.727 327.888 154.168 333.036 141.749C339.926 125.138 347.054 105.443 344.995 107.025C340.877 110.268 325.037 139.851 323.294 144.122C317.434 158.676 315.77 169.355 314.741 179.638C314.741 170.937 314.82 163.027 314.82 156.857C314.899 136.845 315.295 130.359 315.454 128.381C316.087 127.353 316.879 126.167 317.275 125.534C320.998 120.155 322.423 115.567 325.908 107.578C330.898 96.1881 335.174 76.0969 333.907 77.0461C328.68 81.3175 324.562 90.4139 319.176 101.962C313.79 113.59 315.295 120.234 314.266 130.122C314.028 132.099 313.87 139.376 313.711 149.58C312.286 138.743 309.672 131.625 304.92 125.138C299.059 117.149 293.357 111.771 289.159 108.923C284.962 106.076 296.366 125.692 301.831 134.235C306.662 141.828 311.177 148.552 313.711 155.196C313.553 168.959 313.553 186.44 313.553 202.656C312.286 195.299 310.226 187.31 307.534 181.141C304.286 173.705 299.218 162.394 295.178 158.518C294.228 157.569 299.376 179.717 302.702 185.57C306.029 191.424 308.405 196.96 310.543 200.283C311.018 201.074 312.602 204.079 313.553 205.74C313.553 225.594 313.632 243.075 313.87 249.008H314.741C314.662 247.505 314.662 237.38 314.662 224.012C316.721 216.735 321.473 208.509 325.354 200.915C329.551 192.847 340.402 170.779 336.283 174.18Z" fill="#E0E0E0"/>
<path d="M326.621 261.347H301.831L299.93 236.985H328.522L326.621 261.347Z" fill="#F0F0F0"/>
<path d="M330.343 239.832H298.109L297.158 231.606H331.294L330.343 239.832Z" fill="#F5F5F5"/>
<path d="M98.4456 17.0889H54.0144V65.7348H98.4456V17.0889Z" fill="#E0E0E0"/>
<path d="M103.198 17.0889H57.3408V65.7348H103.198V17.0889Z" fill="#F5F5F5"/>
<path d="M99.3969 61.968L99.3969 20.9946L61.2225 20.9946L61.2225 61.968L99.3969 61.968Z" fill="white"/>
<path d="M90.1305 52.0013V30.8818L70.4889 30.8818V52.0013H90.1305Z" fill="#F5F5F5"/>
<path d="M324.799 22.7839H283.536V68.0286H324.799V22.7839Z" fill="#E0E0E0"/>
<path d="M329.234 22.7839H286.625V68.0286H329.234V22.7839Z" fill="#F5F5F5"/>
<path d="M325.675 64.4771V26.3513L290.194 26.3513V64.4771H325.675Z" fill="white"/>
<path d="M307.93 56.4803C314.053 56.4803 319.018 51.5223 319.018 45.4064C319.018 39.2905 314.053 34.3325 307.93 34.3325C301.806 34.3325 296.842 39.2905 296.842 45.4064C296.842 51.5223 301.806 56.4803 307.93 56.4803Z" fill="#F5F5F5"/>
<path d="M144.54 46.1182H111.593V82.2665H144.54V46.1182Z" fill="#E0E0E0"/>
<path d="M148.025 46.1182H114.048V82.2665H148.025V46.1182Z" fill="#F5F5F5"/>
<path d="M145.246 79.4624V49.0093L116.893 49.0093V79.4624H145.246Z" fill="white"/>
<path d="M131.076 56.5593L123.314 69.9271H138.838L131.076 56.5593Z" fill="#F5F5F5"/>
<path d="M276.566 86.6962L268.726 83.5322C268.726 83.5322 258.35 102.437 255.42 103.386C251.381 104.652 242.986 108.29 238.075 109.002C237.442 109.793 236.333 112.245 236.412 113.115C243.065 115.33 257.717 112.403 260.806 110.03C267.934 104.731 276.566 86.6962 276.566 86.6962Z" fill="#E58A7B"/>
<path d="M279.022 82.4247C280.447 87.8034 272.527 98.7191 272.527 98.7191L262.073 92.8657C262.073 92.8657 264.053 88.4362 266.429 83.8484C270.31 76.4922 277.358 76.2549 279.022 82.4247Z" fill="#FF725E"/>
<path opacity="0.2" d="M279.022 82.4247C280.447 87.8034 272.527 98.7191 272.527 98.7191L262.073 92.8657C262.073 92.8657 264.053 88.4362 266.429 83.8484C270.31 76.4922 277.358 76.2549 279.022 82.4247Z" fill="#FF725E"/>
<path opacity="0.2" d="M266.27 95.1596L270.389 97.4535L271.102 84.8767C268.726 86.696 267.062 92.2329 266.27 95.1596Z" fill="black"/>
<path d="M272.21 78.3115C272.21 78.3115 264.132 96.267 268.805 129.805C278.388 129.805 296.05 129.805 300.722 129.805C301.198 124.901 299.534 101.092 305.633 77.9951C305.633 77.9951 300.247 76.8877 295.02 76.6504C290.981 76.4922 285.041 76.334 281.477 76.6504C276.725 77.125 272.21 78.3115 272.21 78.3115Z" fill="#FF725E"/>
<path opacity="0.2" d="M272.21 78.3115C272.21 78.3115 264.132 96.267 268.805 129.805C278.388 129.805 296.05 129.805 300.722 129.805C301.198 124.901 299.534 101.092 305.633 77.9951C305.633 77.9951 300.247 76.8877 295.02 76.6504C290.981 76.4922 285.041 76.334 281.477 76.6504C276.725 77.125 272.21 78.3115 272.21 78.3115Z" fill="#FF725E"/>
<path d="M264.766 287.371C264.686 288.241 276.804 288.874 291.773 288.874C306.742 288.874 318.938 288.162 318.938 287.371C319.018 286.501 306.9 285.868 291.931 285.868C277.042 285.789 264.845 286.501 264.766 287.371Z" fill="#E8ECF1"/>
<path d="M286.816 266.014L281.126 268.204L285.995 280.825L291.685 278.635L286.816 266.014Z" fill="#E58A7B"/>
<path d="M311.335 281.28H305.316L303.178 267.517H309.118L311.335 281.28Z" fill="#E58A7B"/>
<path d="M304.92 280.568H311.652C311.89 280.568 312.127 280.726 312.127 280.964L312.998 286.263C313.078 286.817 312.602 287.371 312.048 287.292C309.672 287.212 308.563 287.133 305.633 287.133C303.811 287.133 300.089 287.292 297.554 287.292C295.099 287.292 294.862 284.839 295.891 284.602C300.564 283.574 302.386 282.229 303.89 280.885C304.207 280.726 304.603 280.568 304.92 280.568Z" fill="#263238"/>
<path d="M285.12 278.512L291.456 276.692C291.694 276.613 291.931 276.692 292.01 276.93L294.386 281.675C294.624 282.15 294.307 282.783 293.753 282.941C291.456 283.574 289.872 283.969 287.021 284.76C285.041 285.314 282.982 286.263 281.002 286.896C279.655 287.292 276.408 287.371 274.824 287.371C272.369 287.371 271.814 284.76 272.844 284.681C275.537 284.365 275.854 284.523 277.358 283.811C279.814 282.625 281.635 281.596 283.774 279.382C284.17 278.986 284.566 278.67 285.12 278.512Z" fill="#263238"/>
<path d="M239.026 108.844L232.452 106.075L229.759 113.353C229.759 113.353 233.561 114.064 237.838 113.353L239.026 108.844Z" fill="#E58A7B"/>
<path d="M227.621 105.917L227.462 110.742L229.759 113.353L232.452 106.075L227.621 105.917Z" fill="#E58A7B"/>
<path d="M286.83 266.017L281.141 268.21L283.651 274.704L289.34 272.511L286.83 266.017Z" fill="#CF6F64"/>
<path d="M309.118 267.517H303.178L304.286 274.636H310.226L309.118 267.517Z" fill="#CF6F64"/>
<path opacity="0.2" d="M267.775 120.709C267.854 122.133 268.013 123.635 268.171 125.138L291.852 117.466C295.574 116.358 298.742 114.064 300.96 110.821C301.039 108.686 301.198 106.471 301.356 104.177C301.435 103.07 301.514 101.883 301.673 100.697C301.752 99.5102 301.91 98.2446 302.069 96.979L267.775 120.709Z" fill="black"/>
<path d="M275.537 94.7642L274.745 94.6851C275.22 90.7302 278.15 87.6453 281.318 87.7244V88.5154C278.546 88.4363 275.933 91.2838 275.537 94.7642Z" fill="white"/>
<path d="M279.734 102.12C279.655 102.12 279.655 102.12 279.576 102.12V101.329C282.269 101.408 284.882 98.5609 285.278 95.0806L286.07 95.1597C285.674 98.9564 282.823 102.12 279.734 102.12Z" fill="white"/>
<path d="M294.545 61.3843C293.436 65.7347 292.09 73.7237 295.02 76.6504C295.02 76.6504 293.04 81.08 284.882 81.08C277.438 81.08 281.477 76.6504 281.477 76.6504C286.387 75.4639 286.466 71.9045 285.833 68.5032L294.545 61.3843Z" fill="#E58A7B"/>
<path d="M290.981 64.311L285.833 68.5033C285.991 69.2943 286.07 70.0853 286.07 70.8763C287.575 72.3792 290.585 68.5824 290.902 66.6049C291.139 65.7348 291.139 64.7856 290.981 64.311Z" fill="#CF6F64"/>
<path d="M276.962 61.3842C277.754 62.7289 279.022 63.599 280.289 63.8363C282.19 64.2318 283.14 62.4916 282.586 60.7514C282.11 59.1695 280.526 57.0338 278.626 57.4293C276.804 57.7457 276.091 59.8023 276.962 61.3842Z" fill="#CF6F64"/>
<path d="M280.051 47.3838C277.121 48.7285 276.012 60.5143 279.734 62.2545C283.536 63.9947 285.674 44.8527 280.051 47.3838Z" fill="#263238"/>
<path d="M295.495 54.8981C294.782 60.8306 294.703 64.2318 291.535 67.3167C286.783 71.9045 279.655 69.136 278.546 63.2826C277.596 57.983 278.942 49.203 284.803 46.9091C290.664 44.5361 296.208 48.9657 295.495 54.8981Z" fill="#E58A7B"/>
<path d="M285.754 50.4687C290.11 49.3613 293.357 48.5703 292.248 52.2089C290.743 57.113 288.842 61.7799 291.377 62.0171C292.882 62.1753 299.534 59.3278 298.663 56.4802C297.95 54.0281 301.039 53.3162 301.594 52.0506C303.653 47.4629 297.792 48.0957 298.822 45.3272C299.851 42.6379 294.07 38.1292 290.902 40.344C285.754 43.9034 276.883 43.9034 281.556 37.971C284.882 33.7788 278.942 34.6488 278.942 34.6488C278.942 34.6488 282.506 36.7845 276.487 40.1067C269.993 43.587 275.854 52.9998 285.754 50.4687Z" fill="#263238"/>
<path d="M297.713 61.3842C296.762 62.7289 295.337 63.599 294.07 63.8363C292.09 64.2318 291.377 62.4916 292.09 60.7514C292.723 59.1695 294.545 57.0338 296.446 57.4293C298.267 57.7457 298.822 59.8023 297.713 61.3842Z" fill="#E58A7B"/>
<path d="M268.805 129.805C268.805 129.805 263.419 177.66 263.023 195.853C262.627 214.758 281.16 273.687 281.16 273.687L290.664 269.732C290.664 269.732 279.576 215.865 281.16 197.356C282.823 177.106 289.793 129.884 289.793 129.884H268.805V129.805Z" fill="#263238"/>
<path opacity="0.2" d="M282.11 142.936C277.834 151.795 280.685 169.276 283.061 179.638C283.932 172.361 284.962 164.371 285.991 157.015C285.833 145.704 284.962 137.003 282.11 142.936Z" fill="black"/>
<path d="M290.268 266.568C290.347 266.568 291.377 269.573 291.377 269.573L280.447 274.161L278.705 270.918L290.268 266.568Z" fill="#FF725E"/>
<path d="M280.13 129.805C280.13 129.805 284.249 175.287 286.942 192.373C289.951 211.04 301.594 273.212 301.594 273.212H312.523C312.523 273.212 305.95 212.543 304.762 194.034C303.415 173.942 300.722 129.805 300.722 129.805H280.13Z" fill="#263238"/>
<path d="M312.682 270.364C312.761 270.364 313.078 273.449 313.078 273.449H301.039L300.168 269.969L312.682 270.364Z" fill="#FF725E"/>
<path opacity="0.2" d="M308.484 266.805C308.405 266.805 308.405 266.805 308.405 266.726C308.326 266.172 302.465 211.356 301.356 194.746C300.168 176.711 297.713 136.766 297.713 136.37C297.713 136.291 297.792 136.291 297.792 136.291C297.871 136.291 297.871 136.37 297.871 136.37C297.871 136.766 300.326 176.711 301.514 194.746C302.623 211.356 308.563 266.172 308.563 266.726C308.563 266.726 308.563 266.805 308.484 266.805Z" fill="black"/>
<path d="M286.387 56.4802C286.387 56.9548 286.07 57.3503 285.754 57.3503C285.437 57.3503 285.199 56.9548 285.199 56.4802C285.199 56.0056 285.516 55.6101 285.833 55.6101C286.229 55.6101 286.466 56.0056 286.387 56.4802Z" fill="#263238"/>
<path d="M281.002 56.4802C281.002 56.9548 280.685 57.3503 280.368 57.3503C280.051 57.3503 279.814 56.9548 279.814 56.4802C279.814 56.0056 280.13 55.6101 280.447 55.6101C280.764 55.6101 281.002 56.0056 281.002 56.4802Z" fill="#263238"/>
<path d="M282.665 56.7175C282.665 56.7175 281.398 59.486 280.13 60.8307C280.922 61.6217 282.427 61.2262 282.427 61.2262L282.665 56.7175Z" fill="#DF5753"/>
<path d="M282.823 63.2827C282.744 63.2827 282.665 63.2036 282.665 63.1245C282.665 63.0454 282.744 62.9663 282.823 62.9663C284.962 62.9663 285.991 61.4634 285.991 61.4634C286.07 61.3843 286.15 61.3843 286.15 61.3843C286.229 61.4634 286.229 61.5425 286.15 61.5425C286.229 61.7798 285.12 63.2827 282.823 63.2827Z" fill="#263238"/>
<path d="M287.338 55.0563C287.258 55.0563 287.179 55.0563 287.1 55.0563C286.07 54.4235 285.12 54.819 285.12 54.819C284.962 54.8981 284.803 54.819 284.724 54.6608C284.645 54.5026 284.724 54.3444 284.882 54.2653C284.962 54.2653 286.15 53.7116 287.417 54.5026C287.575 54.5817 287.575 54.7399 287.496 54.8981C287.496 54.9772 287.417 55.0563 287.338 55.0563Z" fill="#263238"/>
<path d="M278.863 53.4745C278.863 53.4745 278.784 53.4745 278.784 53.3954C278.705 53.3163 278.705 53.079 278.784 52.9999C279.893 51.8134 281.16 51.9716 281.239 52.0507C281.398 52.0507 281.477 52.2089 281.477 52.3671C281.477 52.5253 281.318 52.6044 281.16 52.6044C281.081 52.6044 280.13 52.4462 279.259 53.3954C279.101 53.4745 278.942 53.4745 278.863 53.4745Z" fill="#263238"/>
<path d="M308.642 85.8261L300.406 83.6113C300.406 83.6113 292.327 103.465 289.476 104.731C285.595 106.471 275.774 112.562 271.577 115.567C271.339 116.517 271.498 119.206 272.052 119.918C279.18 118.652 292.802 113.353 295.654 110.742C302.227 104.573 308.642 85.8261 308.642 85.8261Z" fill="#E58A7B"/>
<path d="M302.94 281.596C302.465 281.596 302.069 281.517 301.831 281.28C301.594 281.122 301.514 280.885 301.594 280.568C301.594 280.331 301.752 280.252 301.831 280.173C302.465 279.856 304.366 281.043 304.603 281.122C304.682 281.122 304.682 281.201 304.682 281.28C304.682 281.359 304.603 281.359 304.603 281.359C304.049 281.517 303.494 281.596 302.94 281.596ZM302.069 280.41C301.99 280.41 301.91 280.41 301.91 280.41C301.91 280.41 301.831 280.489 301.831 280.568C301.831 280.805 301.831 280.964 301.99 281.043C302.306 281.28 303.098 281.359 304.128 281.122C303.415 280.805 302.544 280.41 302.069 280.41Z" fill="#FF725E"/>
<path d="M304.445 281.438C303.811 281.122 302.702 279.777 302.861 279.144C302.861 278.986 303.019 278.828 303.336 278.749C303.574 278.749 303.732 278.749 303.89 278.907C304.524 279.461 304.603 281.201 304.603 281.28C304.603 281.359 304.603 281.359 304.445 281.438C304.524 281.438 304.445 281.438 304.445 281.438ZM303.415 278.986C303.336 278.986 303.336 278.986 303.415 278.986C303.178 278.986 303.178 279.065 303.098 279.144C303.019 279.54 303.732 280.489 304.286 280.964C304.207 280.489 304.128 279.461 303.653 279.065C303.653 279.065 303.494 278.986 303.415 278.986Z" fill="#FF725E"/>
<path d="M281.873 280.647C281.318 280.805 280.764 280.805 280.368 280.647C280.13 280.489 280.051 280.331 279.972 280.014C279.972 279.856 279.972 279.698 280.13 279.619C280.764 279.065 283.378 279.698 283.615 279.698C283.694 279.698 283.694 279.777 283.694 279.856C283.694 279.935 283.694 279.935 283.615 280.014C283.219 280.173 282.506 280.489 281.873 280.647ZM280.606 279.698C280.526 279.698 280.447 279.777 280.368 279.777C280.289 279.856 280.289 279.856 280.289 279.935C280.289 280.094 280.368 280.252 280.526 280.331C280.922 280.568 281.952 280.41 283.219 279.856C282.348 279.698 281.16 279.54 280.606 279.698Z" fill="#FF725E"/>
<path d="M283.694 280.014C283.615 280.014 283.615 280.014 283.694 280.014C282.902 279.856 281.239 278.986 281.239 278.274C281.239 278.116 281.318 277.879 281.714 277.8C281.952 277.72 282.269 277.72 282.506 277.879C283.378 278.274 283.853 279.856 283.853 279.856C283.774 279.856 283.774 279.935 283.694 280.014ZM281.794 278.037H281.714C281.477 278.116 281.477 278.195 281.477 278.274C281.477 278.67 282.586 279.461 283.457 279.698C283.298 279.223 282.902 278.353 282.348 278.116C282.11 277.958 281.952 277.958 281.794 278.037Z" fill="#FF725E"/>
<path d="M272.29 115.093L264.053 118.89L263.102 121.183L266.191 123.24C266.191 123.24 271.894 122.607 273.478 118.969L272.29 115.093Z" fill="#E58A7B"/>
<path d="M272.606 119.997C272.052 116.912 271.102 115.567 271.102 115.488L272.369 114.539C272.448 114.618 273.636 116.2 274.19 119.76L272.606 119.997Z" fill="#263238"/>
<path d="M274.032 116.2C274.27 116.833 273.874 117.624 273.082 118.019C272.29 118.336 271.418 118.098 271.181 117.387C270.943 116.754 271.339 115.963 272.131 115.567C272.923 115.33 273.794 115.567 274.032 116.2Z" fill="#263238"/>
<path d="M258.43 121.974L259.538 123.082L266.904 119.918L264.053 118.889L258.43 121.974Z" fill="#E58A7B"/>
<path opacity="0.2" d="M290.268 266.568C290.347 266.568 291.377 269.573 291.377 269.573L280.447 274.161L278.705 270.918L290.268 266.568Z" fill="black"/>
<path opacity="0.2" d="M312.682 270.364C312.761 270.364 313.078 273.449 313.078 273.449H301.039L300.168 269.969L312.682 270.364Z" fill="black"/>
<path d="M310.781 83.5321C312.998 90.5719 304.445 100.143 304.445 100.143L292.723 95.3179C292.723 95.3179 294.386 90.2555 297.554 83.3739C301.118 75.6222 308.642 76.4132 310.781 83.5321Z" fill="#FF725E"/>
<path opacity="0.2" d="M310.781 83.5321C312.998 90.5719 304.445 100.143 304.445 100.143L292.723 95.3179C292.723 95.3179 294.386 90.2555 297.554 83.3739C301.118 75.6222 308.642 76.4132 310.781 83.5321Z" fill="#FF725E"/>
<path d="M193.961 13.2129H188.892V14.0039H193.961V13.2129Z" fill="white"/>
<path d="M259.483 45.4803L258.87 59.0718L259.661 59.1074L260.274 45.5159L259.483 45.4803Z" fill="white"/>
<path d="M257.875 16.8516H164.419L155.707 211.277H249.163L257.875 16.8516Z" fill="white"/>
<path opacity="0.56" d="M255.103 19.5408H161.647L152.935 213.887H246.391L255.103 19.5408Z" fill="#FAFAFA"/>
<path opacity="0.07" d="M252.331 22.2302H158.875L150.163 216.577H243.619L252.331 22.2302Z" fill="white"/>
<path d="M241.639 107.024H161.885L161.251 121.895H241.006L241.639 107.024Z" fill="white"/>
<path d="M161.773 121.395L162.364 107.524H241.117L240.526 121.395H161.773Z" stroke="black" stroke-opacity="0.15"/>
<path d="M205.762 96.1089H162.36L162.122 102.832H205.445L205.762 96.1089Z" fill="white"/>
<path d="M162.64 102.332L162.843 96.6089H205.238L204.968 102.332H162.64Z" stroke="black" stroke-opacity="0.15"/>
<path d="M239.897 147.128H160.142L159.43 161.998H239.184L239.897 147.128Z" fill="white"/>
<path d="M159.954 161.498L160.619 147.628H239.372L238.707 161.498H159.954Z" stroke="black" stroke-opacity="0.15"/>
<path opacity="0.47" d="M225.245 182.09H171.626L170.834 199.887H224.453L225.245 182.09Z" fill="white"/>
<path d="M221.681 202.655H168.062H167.983V202.576L168.775 184.779C168.775 184.7 168.854 184.7 168.854 184.7H222.473H222.552V184.779L221.76 202.576C221.76 202.655 221.681 202.655 221.681 202.655ZM168.142 202.497H221.602L222.394 184.858H168.934L168.142 202.497Z" fill="white"/>
<path d="M196.416 136.291H160.618L160.301 142.936H196.099L196.416 136.291Z" fill="white"/>
<path d="M224.215 58.9322C223.978 63.3618 222.394 67.475 219.78 70.8762C215.899 75.9386 209.722 79.2607 202.99 79.2607C196.258 79.2607 190.397 75.9386 186.991 70.8762C184.694 67.5541 183.427 63.4409 183.665 58.9322C184.14 47.7002 193.644 38.6829 204.89 38.6829C216.058 38.6829 224.69 47.7793 224.215 58.9322Z" fill="white"/>
<path d="M219.384 70.5716L219.383 70.572C215.591 75.5187 209.557 78.7607 202.99 78.7607C196.426 78.7607 190.72 75.5229 187.406 70.5971L187.406 70.5971L187.403 70.5919C185.168 67.3592 183.932 63.355 184.164 58.9586H184.164L184.164 58.9534C184.628 47.992 193.909 39.1829 204.89 39.1829C215.769 39.1829 224.177 48.0378 223.716 58.9081C223.483 63.2328 221.937 67.2487 219.384 70.5716Z" stroke="black" stroke-opacity="0.15"/>
<path d="M224.541 45.8013L224.536 45.8076L224.531 45.8142C223.592 47.041 222.073 47.8329 220.493 47.8329C218.918 47.8329 217.484 47.0458 216.624 45.8296L216.624 45.8295L216.62 45.8238C216.06 45.0542 215.772 44.0643 215.844 42.9875L215.844 42.9875L215.844 42.9805C215.989 40.2395 218.304 38.0754 220.968 38.0754C223.696 38.0754 225.758 40.2122 225.617 42.9243C225.543 44.021 225.178 45.0237 224.541 45.8013Z" fill="white" stroke="#D9D9D9"/>
<path d="M170.518 114.46C170.438 115.804 169.33 116.833 168.062 116.833C166.716 116.833 165.686 115.804 165.766 114.46C165.845 113.115 166.954 112.087 168.221 112.087C169.567 112.008 170.518 113.115 170.518 114.46Z" fill="#263238"/>
<path d="M181.21 114.46C181.13 115.805 180.022 116.833 178.754 116.833C177.408 116.833 176.378 115.805 176.458 114.46C176.537 113.115 177.646 112.087 178.913 112.087C180.18 112.087 181.21 113.115 181.21 114.46Z" fill="#263238"/>
<path d="M191.822 114.46C191.743 115.804 190.634 116.833 189.367 116.833C188.021 116.833 186.991 115.804 187.07 114.46C187.15 113.115 188.258 112.087 189.526 112.087C190.872 112.008 191.902 113.115 191.822 114.46Z" fill="#263238"/>
<path d="M168.696 154.563C168.617 155.908 167.508 156.936 166.241 156.936C164.894 156.936 163.865 155.908 163.944 154.563C164.023 153.218 165.132 152.19 166.399 152.19C167.746 152.19 168.775 153.218 168.696 154.563Z" fill="#263238"/>
<path d="M179.388 154.563C179.309 155.908 178.2 156.936 176.933 156.936C175.586 156.936 174.557 155.908 174.636 154.563C174.715 153.218 175.824 152.19 177.091 152.19C178.438 152.19 179.467 153.218 179.388 154.563Z" fill="#263238"/>
<path d="M190.08 154.563C190.001 155.908 188.892 156.936 187.625 156.936C186.278 156.936 185.249 155.908 185.328 154.563C185.407 153.218 186.516 152.19 187.783 152.19C189.05 152.19 190.08 153.218 190.08 154.563Z" fill="#263238"/>
<path d="M200.772 154.563C200.693 155.908 199.584 156.936 198.317 156.936C196.97 156.936 195.941 155.908 196.02 154.563C196.099 153.218 197.208 152.19 198.475 152.19C199.742 152.19 200.772 153.218 200.772 154.563Z" fill="#263238"/>
<path d="M211.385 154.563C211.306 155.908 210.197 156.936 208.93 156.936C207.583 156.936 206.554 155.908 206.633 154.563C206.712 153.218 207.821 152.19 209.088 152.19C210.434 152.19 211.464 153.218 211.385 154.563Z" fill="#263238"/>
<path d="M209.859 57.8986C213.174 54.6613 213.358 49.4796 210.27 46.3249C207.181 43.1701 201.99 43.2371 198.675 46.4743C195.36 49.7116 195.176 54.8934 198.264 58.0481C201.353 61.2028 206.544 61.1359 209.859 57.8986Z" fill="#F5F5F5"/>
<path d="M219.78 70.8763C215.899 75.9386 209.722 79.2608 202.99 79.2608C196.258 79.2608 190.397 75.9386 186.991 70.8763C190.872 67.0795 196.97 64.5483 203.702 64.5483C210.434 64.5483 216.295 67.0004 219.78 70.8763Z" fill="#F5F5F5"/>
<path opacity="0.1" d="M209.859 57.8986C213.174 54.6613 213.358 49.4796 210.27 46.3249C207.181 43.1701 201.99 43.2371 198.675 46.4743C195.36 49.7116 195.176 54.8934 198.264 58.0481C201.353 61.2028 206.544 61.1359 209.859 57.8986Z" fill="#F5F5F5"/>
<path opacity="0.1" d="M219.78 70.8763C215.899 75.9386 209.722 79.2608 202.99 79.2608C196.258 79.2608 190.397 75.9386 186.991 70.8763C190.872 67.0795 196.97 64.5483 203.702 64.5483C210.434 64.5483 216.295 67.0004 219.78 70.8763Z" fill="#F5F5F5"/>
<path d="M103.277 125.455C102.564 127.116 101.772 128.935 101.059 130.675C100.346 132.415 99.6337 134.235 99.0793 136.054C97.8913 139.693 96.7825 143.331 96.2281 146.97L96.0697 148.156C96.0697 148.314 96.0697 148.473 96.1489 148.71C96.2281 149.184 96.5449 149.896 97.0201 150.529C97.8913 151.874 99.1585 153.219 100.505 154.484C101.851 155.75 103.356 157.015 104.861 158.123C106.366 159.309 107.95 160.417 109.534 161.524L108.029 164.292C104.227 162.631 100.742 160.654 97.3369 158.202C95.6737 156.936 94.0105 155.592 92.5849 153.693C91.8721 152.744 91.1593 151.716 90.6841 150.292C90.4465 149.58 90.2881 148.789 90.2881 147.998C90.2881 147.84 90.2881 147.523 90.2881 147.365V146.97L90.3673 146.179C90.7633 141.986 91.7137 137.952 92.9809 134.077C93.6145 132.099 94.2481 130.201 95.0401 128.302C95.8321 126.404 96.5449 124.585 97.4953 122.607L103.277 125.455Z" fill="#E58A7B"/>
<path d="M108.425 161.049L114.048 158.202L112.622 164.371C112.622 164.371 108.742 165.479 106.999 163.58L108.425 161.049Z" fill="#E58A7B"/>
<path d="M119.196 159.23L117.691 164.292L112.622 164.371L114.048 158.202L119.196 159.23Z" fill="#E58A7B"/>
<path d="M127.037 95.7925C127.037 95.7925 127.512 97.6118 128.304 98.9564C127.67 99.5892 127.037 99.3519 127.037 99.3519V95.7925Z" fill="#DF5753"/>
<path d="M126.878 95.8718C127.185 95.8718 127.433 95.4822 127.433 95.0017C127.433 94.5211 127.185 94.1316 126.878 94.1316C126.572 94.1316 126.324 94.5211 126.324 95.0017C126.324 95.4822 126.572 95.8718 126.878 95.8718Z" fill="#263238"/>
<path d="M126.72 94.1314L127.908 93.815C127.987 93.7359 127.354 94.6851 126.72 94.1314Z" fill="#263238"/>
<path d="M111.593 101.646C112.306 105.364 113.019 112.087 110.484 114.539C110.484 114.539 111.514 118.257 118.325 118.257C125.849 118.257 121.889 114.539 121.889 114.539C117.771 113.59 117.85 110.505 118.563 107.658L111.593 101.646Z" fill="#E58A7B"/>
<path d="M109.613 93.2614C110.009 99.4311 110.009 102.041 113.098 105.205C117.77 109.951 125.215 108.132 126.72 102.041C128.066 96.5044 127.195 87.408 121.176 84.9559C115.236 82.4248 109.217 87.0916 109.613 93.2614Z" fill="#E58A7B"/>
<path d="M110.167 86.3006C107.078 87.408 102.96 86.617 104.544 96.1089C106.286 106.155 103.594 109.477 103.594 109.477C103.594 109.477 115.315 112.008 127.274 109.318C127.274 109.318 123.631 102.911 124.661 98.3237C125.928 92.3913 124.898 90.1765 124.898 90.1765C124.898 90.1765 114.523 84.7187 110.167 86.3006Z" fill="#263238"/>
<path d="M123.235 96.4254C123.235 97.6118 123.631 98.8774 124.186 99.7475C125.057 101.013 126.007 100.539 126.245 99.1938C126.483 98.0073 126.324 95.8717 125.215 95.0807C124.265 94.2897 123.315 95.0807 123.235 96.4254Z" fill="#E58A7B"/>
<path d="M107.554 87.408C106.682 84.956 110.88 81.0801 119.83 82.6621C128.779 84.2441 129.175 91.6794 129.175 91.6794L127.354 89.5437L127.433 91.8376L118.246 93.5778L107.554 87.408Z" fill="#263238"/>
<path d="M108.266 114.934C108.108 114.143 108.662 113.432 109.454 113.352C112.226 112.878 118.562 111.929 121.73 112.403C124.106 112.72 124.74 114.143 124.819 115.251C124.898 116.121 124.186 116.833 123.394 116.754L109.613 116.121C108.9 116.042 108.346 115.567 108.266 114.934Z" fill="#FF725E"/>
<path opacity="0.6" d="M108.266 114.934C108.108 114.143 108.662 113.432 109.454 113.352C112.226 112.878 118.562 111.929 121.73 112.403C124.106 112.72 124.74 114.143 124.819 115.251C124.898 116.121 124.186 116.833 123.394 116.754L109.613 116.121C108.9 116.042 108.346 115.567 108.266 114.934Z" fill="black"/>
<path d="M116.266 253.121L121.335 256.68L129.888 245.132L124.819 241.572L116.266 253.121Z" fill="#E58A7B"/>
<path d="M104.307 252.883L109.692 255.968L117.295 243.708L111.91 240.623L104.307 252.883Z" fill="#E58A7B"/>
<path d="M129.888 245.132L125.453 251.064L120.384 247.505L124.74 241.572L129.888 245.132Z" fill="#CF6F64"/>
<path d="M111.91 240.623L117.295 243.708L113.415 250.036L107.95 246.951L111.91 240.623Z" fill="#CF6F64"/>
<path d="M120.542 153.535C120.542 153.535 140.501 178.609 136.778 202.655C133.769 222.035 116.266 248.296 116.266 248.296L108.029 244.183C108.029 244.183 116.978 226.702 122.839 208.272C125.294 200.52 124.265 191.977 119.671 185.254C109.534 170.541 93.3768 179.321 104.306 153.535H120.542Z" fill="#494C4E"/>
<path opacity="0.6" d="M120.542 153.535C120.542 153.535 140.501 178.609 136.778 202.655C133.769 222.035 116.266 248.296 116.266 248.296L108.029 244.183C108.029 244.183 116.978 226.702 122.839 208.272C125.294 200.52 124.265 191.977 119.671 185.254C109.534 170.541 93.3768 179.321 104.306 153.535H120.542Z" fill="#263238"/>
<path opacity="0.4" d="M130.284 169.671L127.354 166.823C127.354 167.061 132.977 201.706 134.561 211.435C135.511 208.43 136.224 205.503 136.699 202.734C138.6 190.949 134.719 178.926 130.284 169.671Z" fill="black"/>
<path d="M129.413 153.535C129.413 153.535 153.41 185.095 154.123 204C154.678 219.82 127.987 250.431 127.987 250.431L120.226 245.448C120.226 245.448 135.828 223.696 139.788 205.899C138.283 188.259 106.128 153.535 106.128 153.535H129.413Z" fill="#494C4E"/>
<path opacity="0.6" d="M129.413 153.535C129.413 153.535 153.41 185.095 154.123 204C154.678 219.82 127.987 250.431 127.987 250.431L120.226 245.448C120.226 245.448 135.828 223.696 139.788 205.899C138.283 188.259 106.128 153.535 106.128 153.535H129.413Z" fill="#263238"/>
<path d="M99.7129 115.963C97.1785 116.596 94.7233 125.929 94.7233 125.929L104.782 132.653C104.782 132.653 108.108 125.297 106.92 122.053C105.732 118.573 102.96 115.172 99.7129 115.963Z" fill="#FF725E"/>
<path opacity="0.2" d="M101.693 121.895L100.98 130.042L104.703 132.574C104.703 132.574 106.445 128.698 106.999 125.376L101.693 121.895Z" fill="black"/>
<path d="M132.423 116.121C132.423 116.121 135.353 117.149 129.492 153.614C119.513 153.614 109.138 153.614 104.227 153.614C104.623 143.331 104.623 137.003 99.7921 115.963C99.7921 115.963 105.099 114.776 110.484 114.539C114.761 114.302 118.246 114.223 121.968 114.539C126.799 114.935 132.423 116.121 132.423 116.121Z" fill="#FF725E"/>
<path d="M134.957 121.895C135.511 123.477 136.145 125.217 136.779 126.799C137.412 128.46 138.046 130.122 138.679 131.783L140.659 136.766L141.135 138.031L141.372 138.664L141.531 138.981C141.531 139.06 141.531 139.06 141.531 139.06C141.531 139.06 141.451 138.902 140.976 138.585C140.739 138.427 140.343 138.269 139.947 138.269C139.551 138.269 139.234 138.348 139.075 138.427C138.679 138.585 138.679 138.664 138.759 138.664C138.759 138.664 138.838 138.585 138.917 138.506C139.234 138.111 139.709 137.399 140.026 136.687C140.422 135.975 140.739 135.184 141.135 134.393C141.847 132.811 142.481 131.15 143.115 129.489C143.748 127.828 144.382 126.167 144.936 124.505L146.758 119.443L149.847 120.234C149.213 123.873 148.5 127.353 147.55 130.912C147.075 132.653 146.599 134.472 145.966 136.212C145.649 137.082 145.332 138.031 144.936 138.902C144.54 139.851 144.144 140.721 143.431 141.749C143.273 141.986 143.035 142.303 142.719 142.619C142.402 142.936 142.085 143.252 141.293 143.647C140.897 143.806 140.343 143.964 139.788 143.964C139.155 143.964 138.521 143.727 138.125 143.489C137.254 142.936 136.937 142.382 136.699 141.986C136.541 141.749 136.462 141.591 136.383 141.433L136.224 141.116L135.907 140.483L135.274 139.218C134.482 137.557 133.69 135.896 132.977 134.235C132.264 132.574 131.551 130.833 130.839 129.172C130.205 127.432 129.571 125.771 128.938 123.952L134.957 121.895Z" fill="#E58A7B"/>
<path d="M132.423 116.121C135.432 116.833 138.838 125.771 138.838 125.771L129.809 133.444C129.809 133.444 123.948 123.714 125.136 120.471C126.403 117.149 128.463 115.172 132.423 116.121Z" fill="#FF725E"/>
<path d="M148.104 116.517L151.272 113.906L153.49 117.308L151.906 120.155C151.906 120.155 149.292 122.528 147.074 121.342C146.203 119.68 146.678 117.703 148.104 116.517Z" fill="#E58A7B"/>
<path d="M156.974 113.906L156.737 114.776L151.747 115.646L151.272 113.906H156.974Z" fill="#E58A7B"/>
<path d="M128.621 250.906L119.592 245.053L121.176 242.284L131.393 248.454L128.621 250.906Z" fill="#FF725E"/>
<path d="M113.256 255.573C112.543 255.573 111.593 255.098 111.039 254.782C110.959 254.782 110.959 254.703 110.959 254.624C110.959 254.545 111.039 254.545 111.039 254.465C111.276 254.386 113.415 253.754 114.048 254.228C114.127 254.307 114.286 254.465 114.207 254.703C114.127 255.019 114.048 255.256 113.731 255.415C113.573 255.494 113.415 255.573 113.256 255.573ZM111.435 254.703C112.385 255.177 113.177 255.415 113.573 255.177C113.731 255.098 113.811 254.94 113.89 254.703C113.89 254.545 113.89 254.545 113.811 254.465C113.494 254.228 112.306 254.465 111.435 254.703Z" fill="#263238"/>
<path d="M111.038 254.782C110.959 254.782 110.959 254.782 110.959 254.703C110.959 254.703 110.88 254.624 110.959 254.545C110.959 254.466 111.514 252.725 112.306 252.33C112.543 252.251 112.781 252.251 112.939 252.33C113.256 252.488 113.335 252.725 113.335 252.884C113.256 253.675 111.751 254.624 111.038 254.782C111.118 254.782 111.118 254.782 111.038 254.782ZM112.622 252.646C112.543 252.646 112.464 252.646 112.385 252.725C111.91 252.963 111.514 253.912 111.276 254.466C111.989 254.149 112.939 253.358 112.939 252.963C112.939 252.884 112.939 252.804 112.781 252.725C112.702 252.646 112.702 252.646 112.622 252.646Z" fill="#263238"/>
<path d="M124.582 258.974C123.711 258.974 122.443 257.867 121.731 257.155C121.651 257.076 121.651 257.076 121.731 256.997C121.731 256.917 121.81 256.917 121.889 256.917C122.206 256.997 124.978 257.313 125.374 258.104C125.453 258.262 125.453 258.42 125.374 258.579C125.215 258.816 124.978 258.974 124.74 259.053C124.661 258.974 124.582 258.974 124.582 258.974ZM122.285 257.234C123.315 258.183 124.186 258.737 124.661 258.658C124.819 258.658 124.978 258.579 125.057 258.341C125.057 258.262 125.136 258.183 125.057 258.183C124.819 257.788 123.394 257.392 122.285 257.234Z" fill="#263238"/>
<path d="M122.364 257.234C122.126 257.234 121.968 257.234 121.81 257.155C121.73 257.155 121.73 257.076 121.73 257.076C121.73 256.997 121.73 256.997 121.73 256.917C121.81 256.838 122.839 255.573 123.869 255.494C124.186 255.494 124.423 255.573 124.661 255.731C124.978 255.968 124.978 256.206 124.898 256.364C124.661 256.917 123.235 257.234 122.364 257.234ZM122.126 256.917C122.998 256.997 124.423 256.68 124.582 256.285C124.582 256.285 124.661 256.126 124.423 255.968C124.265 255.81 124.027 255.731 123.79 255.81C123.235 255.81 122.443 256.522 122.126 256.917Z" fill="#263238"/>
<path d="M111.276 253.991L104.544 252.093C104.306 252.013 104.069 252.172 103.99 252.33L101.693 257.392C101.455 257.946 101.772 258.579 102.326 258.737C104.702 259.37 105.811 259.528 108.821 260.398C110.642 260.873 113.256 261.822 115.711 262.534C118.166 263.246 119.038 260.793 118.087 260.319C113.652 258.025 113.335 256.364 112.147 254.624C111.989 254.307 111.672 254.07 111.276 253.991Z" fill="#FF725E"/>
<path d="M121.889 256.206L116.186 252.251C115.949 252.093 115.711 252.172 115.553 252.33L111.751 256.443C111.355 256.839 111.434 257.63 111.91 257.946C113.969 259.291 114.998 259.844 117.533 261.584C119.117 262.692 122.206 265.065 124.344 266.568C126.403 267.992 128.066 266.014 127.274 265.223C123.869 261.584 123.156 259.291 122.522 257.234C122.443 256.759 122.206 256.443 121.889 256.206Z" fill="#FF725E"/>
<path d="M117.295 248.849L106.92 243.708L108.029 240.939L119.038 246.318L117.295 248.849Z" fill="#FF725E"/>
<path d="M103.831 152.111L102.96 154.326C102.881 154.484 103.119 154.642 103.356 154.642H129.571C129.809 154.642 129.967 154.563 129.967 154.405L130.205 152.111C130.205 151.953 130.047 151.795 129.809 151.795H104.227C104.069 151.874 103.911 151.953 103.831 152.111Z" fill="#FF725E"/>
<path opacity="0.4" d="M103.831 152.111L102.96 154.326C102.881 154.484 103.119 154.642 103.356 154.642H129.571C129.809 154.642 129.967 154.563 129.967 154.405L130.205 152.111C130.205 151.953 130.047 151.795 129.809 151.795H104.227C104.069 151.874 103.911 151.953 103.831 152.111Z" fill="white"/>
<path d="M107.95 154.959H107.237C107.078 154.959 106.999 154.88 106.999 154.8L107.316 151.874C107.316 151.795 107.474 151.716 107.554 151.716H108.266C108.425 151.716 108.504 151.795 108.504 151.874L108.187 154.8C108.187 154.88 108.108 154.959 107.95 154.959Z" fill="#FF725E"/>
<path d="M124.106 154.959H123.394C123.235 154.959 123.156 154.88 123.156 154.8L123.473 151.874C123.473 151.795 123.631 151.716 123.71 151.716H124.423C124.582 151.716 124.661 151.795 124.661 151.874L124.344 154.8C124.344 154.88 124.265 154.959 124.106 154.959Z" fill="#FF725E"/>
<path d="M107.316 288.873C119.039 288.873 128.542 288.201 128.542 287.371C128.542 286.541 119.039 285.868 107.316 285.868C95.5935 285.868 86.0905 286.541 86.0905 287.371C86.0905 288.201 95.5935 288.873 107.316 288.873Z" fill="#F5F5F5"/>
<path d="M120.305 285.156C116.582 284.048 112.385 282.704 109.85 281.201C109.771 281.122 109.692 281.122 109.613 281.122V264.195H117.137C118.404 264.195 119.434 263.166 119.434 261.901C119.434 260.635 118.404 259.607 117.137 259.607H109.613V182.248H105.098V259.607H97.5744C96.3072 259.607 95.2776 260.635 95.2776 261.901C95.2776 263.166 96.3072 264.195 97.5744 264.195H105.098V281.122C105.019 281.122 104.94 281.201 104.861 281.201C102.326 282.704 98.208 284.127 94.4064 285.156C93.1392 285.551 93.456 287.291 94.7232 287.291H107.316H119.909C121.255 287.371 121.493 285.551 120.305 285.156Z" fill="#E0E0E0"/>
<path d="M121.414 190.949H93.2185C91.0009 190.949 89.1001 189.129 89.1001 186.836V178.451C89.1001 176.236 90.9217 174.338 93.2185 174.338H121.414C123.631 174.338 125.532 176.157 125.532 178.451V186.836C125.532 189.129 123.71 190.949 121.414 190.949Z" fill="#FF725E"/>
<path d="M92.981 190.949V192.373C92.981 193.559 94.2482 194.508 95.8322 194.508H118.8C120.384 194.508 121.651 193.559 121.651 192.373V190.949H92.981Z" fill="#FF725E"/>
<path opacity="0.3" d="M92.981 190.949V192.373C92.981 193.559 94.2482 194.508 95.8322 194.508H118.8C120.384 194.508 121.651 193.559 121.651 192.373V190.949H92.981Z" fill="white"/>
</g>
<defs>
<clipPath id="clip0_447_3545">
<rect width="396" height="288" fill="white" transform="translate(0 0.873535)"/>
</clipPath>
</defs>
</svg>
